<svg width="426" height="388" viewBox="0 0 426 388" fill="none" xmlns="http://www.w3.org/2000/svg">
<g clip-path="url(#clip0)">
<path d="M268.602 52.8623C264.578 61.7865 257.173 68.4301 249.417 73.8379C241.189 79.5539 232.345 84.1807 223.076 87.6167C221.801 88.0947 220.512 88.5522 219.224 88.9823H164.067C163.71 88.5453 163.365 88.0879 163.034 87.6167C159.571 82.7142 157.715 76.5076 158.41 70.4239C159.322 62.4488 164.979 55.1155 172.32 53.4154C179.661 51.722 188.029 56.4128 190.255 64.0875C191.486 49.2913 192.902 33.8737 200.249 21.2692C206.902 9.85969 218.433 1.69342 230.921 0.232236C238.266 -0.586732 245.677 0.86582 252.275 4.41775C252.88 4.74549 253.48 5.08689 254.067 5.44195C258.026 7.84537 261.52 11.0366 264.361 14.8441C272.148 25.4002 274.056 40.7426 268.602 52.8623Z" fill="#F2F2F2"/>
<path d="M254.067 5.4419C254.082 5.62112 254.054 5.80155 253.985 5.96553C253.915 6.12952 253.807 6.27143 253.672 6.37737C228.691 28.1549 208.934 56.0083 196.046 87.6167C195.855 88.0673 195.67 88.5248 195.491 88.9823H192.953C193.131 88.5248 193.31 88.0673 193.495 87.6167C195.912 81.5808 198.585 75.6677 201.512 69.8776C207.848 57.3763 215.303 45.5631 223.771 34.6042C232.239 23.632 241.696 13.5804 252.007 4.59527C252.088 4.52399 252.179 4.46433 252.275 4.41775C252.454 4.33509 252.648 4.29669 252.843 4.30541C253.038 4.31414 253.229 4.36976 253.401 4.46814C253.573 4.56653 253.722 4.70515 253.838 4.87372C253.953 5.04229 254.031 5.2365 254.067 5.4419Z" fill="white"/>
<path d="M255.119 87.6167H12.1182C10.0251 87.6142 7.96753 88.1954 6.14815 89.3032C5.71237 89.568 5.29276 89.8622 4.89186 90.184C3.37385 91.3888 2.14065 92.9577 1.29113 94.7647C0.441613 96.5718 -0.000581192 98.5669 5.73297e-07 100.59V235.784C0.00285639 239.224 1.28051 242.522 3.55248 244.954C5.82446 247.386 8.90511 248.754 12.1182 248.757H255.119C258.332 248.754 261.413 247.386 263.685 244.954C265.957 242.522 267.235 239.224 267.238 235.784V100.59C267.235 97.1501 265.957 93.8522 263.685 91.4199C261.413 88.9876 258.332 87.6198 255.119 87.6167ZM265.962 235.784C265.958 238.861 264.814 241.811 262.782 243.987C260.749 246.163 257.994 247.387 255.119 247.391H12.1182C9.24379 247.387 6.48831 246.163 4.45581 243.987C2.42332 241.811 1.27967 238.861 1.2756 235.784V100.59C1.28465 98.1368 2.01542 95.7491 3.36411 93.7659C4.7128 91.7828 6.61086 90.3049 8.78872 89.5422C8.87811 89.5149 8.96093 89.4807 9.05032 89.4534C10.0466 89.1399 11.0798 88.9812 12.1182 88.9823H255.119C257.994 88.9867 260.749 90.2111 262.782 92.3869C264.814 94.5628 265.958 97.5127 265.962 100.59V235.784Z" fill="#3F3D56"/>
<path d="M342.637 263.965C343.476 263.379 344.185 262.604 344.714 261.693C345.243 260.782 345.579 259.759 345.699 258.694C345.818 257.629 345.718 256.55 345.405 255.531C345.093 254.512 344.575 253.579 343.89 252.797L347.699 204.175L336.789 205.459L333.8 252.783C332.65 254.103 331.992 255.83 331.952 257.634C331.911 259.439 332.49 261.197 333.579 262.576C334.669 263.954 336.192 264.857 337.862 265.113C339.531 265.369 341.23 264.96 342.637 263.965Z" fill="#FFB8B8"/>
<path d="M303.807 379.938L295.988 379.938L292.268 347.649L303.808 347.65L303.807 379.938Z" fill="#FFB8B8"/>
<path d="M290.402 377.546H305.483V387.71H280.908C280.908 386.376 281.153 385.054 281.63 383.82C282.108 382.587 282.807 381.467 283.689 380.523C284.57 379.579 285.617 378.83 286.769 378.319C287.921 377.809 289.156 377.546 290.402 377.546Z" fill="#2F2E41"/>
<path d="M359.295 379.938L351.476 379.938L347.756 347.649L359.297 347.65L359.295 379.938Z" fill="#FFB8B8"/>
<path d="M345.891 377.546H360.971V387.71H336.396C336.396 385.015 337.396 382.429 339.177 380.523C340.958 378.617 343.373 377.546 345.891 377.546Z" fill="#2F2E41"/>
<path d="M303.939 359.94C303.854 359.94 303.769 359.936 303.683 359.929L292.616 358.981C292.177 358.943 291.75 358.809 291.362 358.586C290.974 358.363 290.633 358.056 290.362 357.685C290.09 357.314 289.892 356.887 289.782 356.431C289.672 355.974 289.652 355.498 289.722 355.033L306.501 243.928L307.625 228.257C307.675 227.524 307.945 226.829 308.396 226.275C308.846 225.72 309.452 225.338 310.123 225.184L327 221.232C327.621 221.083 328.268 221.138 328.859 221.389C329.45 221.64 329.957 222.075 330.314 222.639L334.429 229.078C336.045 231.581 337.801 233.977 339.688 236.253C342.607 239.813 347.572 247.717 348.017 260.653C348.137 264.903 348.549 269.137 349.25 273.322L362.838 351.68C362.907 352.139 362.887 352.609 362.78 353.06C362.673 353.511 362.481 353.934 362.216 354.302C361.951 354.671 361.618 354.978 361.238 355.204C360.858 355.43 360.439 355.57 360.007 355.616L349.516 356.467C348.765 356.546 348.013 356.337 347.393 355.877C346.774 355.416 346.327 354.735 346.134 353.954L327.525 279.87C327.489 279.725 327.409 279.597 327.297 279.505C327.185 279.414 327.049 279.365 326.908 279.365C326.768 279.365 326.632 279.415 326.52 279.507C326.409 279.598 326.329 279.727 326.293 279.872L307.019 357.404C306.838 358.131 306.438 358.773 305.881 359.232C305.324 359.69 304.641 359.939 303.939 359.94Z" fill="#2F2E41"/>
<path d="M333.369 170.88C342.02 170.88 349.034 163.372 349.034 154.11C349.034 144.848 342.02 137.339 333.369 137.339C324.717 137.339 317.704 144.848 317.704 154.11C317.704 163.372 324.717 170.88 333.369 170.88Z" fill="#FFB8B8"/>
<path d="M306.818 230.778L306.493 206.83C305.3 191.513 311.637 183.471 317.162 179.425C318.587 178.395 320.193 177.686 321.882 177.34C323.57 176.994 325.307 177.018 326.987 177.412L339.315 180.265C341.032 180.666 342.655 181.435 344.086 182.526C345.517 183.617 346.726 185.007 347.641 186.613C348.516 188.128 349.091 189.82 349.329 191.583C349.568 193.345 349.465 195.142 349.027 196.86C348.17 200.077 346.271 202.861 343.67 204.714C333.077 212.719 332.33 226.167 332.324 226.302L332.311 226.58L306.818 230.778Z" fill="#3D9E67"/>
<path d="M345.399 212.97H334.557C333.796 212.969 333.066 212.645 332.528 212.069C331.99 211.493 331.687 210.712 331.686 209.897V189.755C331.686 187.401 332.56 185.143 334.115 183.478C335.67 181.814 337.779 180.878 339.978 180.878C342.177 180.878 344.286 181.814 345.841 183.478C347.396 185.143 348.269 187.401 348.269 189.755V209.897C348.268 210.712 347.966 211.493 347.428 212.069C346.89 212.645 346.16 212.969 345.399 212.97Z" fill="#3D9E67"/>
<path d="M272.602 216.775C271.963 217.591 271.17 218.253 270.275 218.718C269.38 219.182 268.404 219.438 267.409 219.469C266.415 219.5 265.426 219.305 264.508 218.896C263.589 218.488 262.762 217.876 262.08 217.101C255.902 210.165 266.002 199.749 272.203 206.701C272.422 206.94 272.624 207.196 272.81 207.465L304.08 206.633L307.813 199.325L319.283 204.093C317.081 207.75 314.553 222.099 308.793 221.4C308.038 221.422 273.374 216.834 272.602 216.775Z" fill="#FFB8B8"/>
<path d="M314.433 211.246L305.692 204.378C305.079 203.895 304.67 203.172 304.555 202.367C304.439 201.562 304.627 200.74 305.076 200.083L316.208 183.844C316.852 182.905 317.663 182.11 318.594 181.506C319.525 180.901 320.559 180.499 321.635 180.322C322.711 180.146 323.809 180.197 324.867 180.475C325.924 180.753 326.92 181.25 327.798 181.94C328.676 182.63 329.418 183.498 329.983 184.494C330.547 185.491 330.923 186.597 331.088 187.75C331.253 188.902 331.205 190.077 330.946 191.21C330.686 192.342 330.221 193.408 329.577 194.348L318.445 210.587C317.994 211.243 317.319 211.681 316.567 211.804C315.814 211.928 315.047 211.727 314.433 211.246Z" fill="#3D9E67"/>
<path d="M336.507 162.826C337.012 161.697 337.187 160.431 337.01 159.194C336.832 157.956 336.31 156.805 335.511 155.89C332.564 152.709 327.96 154.831 323.977 154.519C317.343 154 312.825 145.531 314.806 138.733C316.786 131.935 323.825 127.717 330.464 128.164C337.103 128.611 343.113 133.008 347.114 138.696C349.853 133.977 356.581 133.427 360.923 136.469C365.266 139.511 367.512 145.07 368.441 150.535C369.369 156.001 369.218 161.618 370 167.11C371.895 180.423 379.921 192.958 391.534 198.133C403.147 203.308 418.007 199.982 425.605 189.25C427.082 202.256 424.49 215.42 418.235 226.681C411.98 237.943 402.415 246.667 391.035 251.489C384.742 254.156 377.793 255.572 371.168 254.09C360.472 251.697 352.152 241.904 348.527 230.869C344.901 219.834 345.335 207.726 347.096 196.181C348.181 189.07 349.382 180.649 344.537 175.647C343.178 174.436 341.577 173.572 339.859 173.122C338.948 172.829 338.111 172.317 337.412 171.626C336.714 170.934 336.172 170.081 335.828 169.131C335.485 168.181 335.348 167.16 335.429 166.145C335.51 165.13 335.806 164.148 336.295 163.274C336.373 163.125 336.444 162.976 336.507 162.826Z" fill="#2F2E41"/>
<path d="M392.743 388H247.325C247.156 388 246.994 387.928 246.874 387.8C246.754 387.672 246.687 387.498 246.687 387.317C246.687 387.136 246.754 386.962 246.874 386.834C246.994 386.706 247.156 386.634 247.325 386.634H392.743C392.912 386.634 393.074 386.706 393.194 386.834C393.314 386.962 393.381 387.136 393.381 387.317C393.381 387.498 393.314 387.672 393.194 387.8C393.074 387.928 392.912 388 392.743 388Z" fill="#3F3D56"/>
<path d="M133.353 168.129C132.385 168.129 131.433 167.866 130.586 167.365L3.6363 92.5631C3.48813 92.4758 3.37842 92.329 3.33132 92.1551C3.28422 91.9812 3.30358 91.7944 3.38514 91.6357C3.4667 91.4771 3.6038 91.3597 3.76625 91.3092C3.92869 91.2588 4.10319 91.2795 4.25137 91.3669L131.201 166.169C131.848 166.552 132.574 166.756 133.314 166.763C134.054 166.77 134.783 166.58 135.437 166.209L264.476 93.3346C264.55 93.2925 264.631 93.2665 264.714 93.258C264.798 93.2496 264.882 93.2589 264.962 93.2853C265.042 93.3117 265.117 93.3548 265.181 93.4121C265.246 93.4694 265.299 93.5397 265.338 93.6191C265.378 93.6985 265.402 93.7854 265.409 93.8748C265.417 93.9642 265.408 94.0543 265.383 94.14C265.359 94.2258 265.318 94.3054 265.265 94.3744C265.211 94.4434 265.145 94.5004 265.071 94.5421L136.032 167.417C135.206 167.884 134.287 168.129 133.353 168.129Z" fill="#3F3D56"/>
<path d="M40.5427 214.617H22.6843C21.3311 214.617 20.0333 214.041 19.0764 213.017C18.1195 211.993 17.5819 210.603 17.5819 209.155C17.5819 207.706 18.1195 206.316 19.0764 205.292C20.0333 204.268 21.3311 203.692 22.6843 203.692H40.5427C41.8959 203.692 43.1937 204.268 44.1506 205.292C45.1075 206.316 45.6451 207.706 45.6451 209.155C45.6451 210.603 45.1075 211.993 44.1506 213.017C43.1937 214.041 41.8959 214.617 40.5427 214.617Z" fill="#3F3D56"/>
<path d="M61.59 233.052H22.6843C21.3311 233.052 20.0333 232.477 19.0764 231.453C18.1195 230.428 17.5819 229.039 17.5819 227.59C17.5819 226.141 18.1195 224.752 19.0764 223.728C20.0333 222.703 21.3311 222.128 22.6843 222.128H61.59C62.9433 222.128 64.2411 222.703 65.198 223.728C66.1548 224.752 66.6924 226.141 66.6924 227.59C66.6924 229.039 66.1548 230.428 65.198 231.453C64.2411 232.477 62.9433 233.052 61.59 233.052Z" fill="#3F3D56"/>
<path d="M133.302 190.036C144.574 190.036 153.712 180.254 153.712 168.187C153.712 156.12 144.574 146.337 133.302 146.337C122.03 146.337 112.893 156.12 112.893 168.187C112.893 180.254 122.03 190.036 133.302 190.036Z" fill="#3D9E67"/>
</g>
<defs>
<clipPath id="clip0">
<rect width="426" height="388" fill="white"/>
</clipPath>
</defs>
</svg>
