<svg width="68" height="50" viewBox="0 0 68 50" fill="none" xmlns="http://www.w3.org/2000/svg">
<g clip-path="url(#clip0)">
<path d="M28.9881 33.9051C28.9881 33.9051 38.0186 32.8262 41.1793 31.1178C44.34 29.4094 67.8194 28.6002 67.8194 33.9051C67.8194 39.2101 40.8181 41.5479 40.8181 41.5479L26.6401 40.7387L28.9881 33.9051Z" fill="#FBBEBE"/>
<path opacity="0.1" d="M28.9881 33.9051C28.9881 33.9051 38.0186 32.8262 41.1793 31.1178C44.34 29.4094 67.8194 28.6002 67.8194 33.9051C67.8194 39.2101 40.8181 41.5479 40.8181 41.5479L26.6401 40.7387L28.9881 33.9051Z" fill="black"/>
<path d="M31.6069 32.9163L29.7105 38.4011L0 38.7608V30.6685C0 30.6685 11.3785 28.0609 20.409 33.6357C20.409 33.6357 31.0651 32.3768 31.6069 32.9163Z" fill="#3D9E67"/>
<path opacity="0.1" d="M31.6069 32.9073L29.7105 38.3921L0 38.7518V30.6594C0 30.6594 11.3785 28.0519 20.409 33.6266C20.409 33.6266 31.0651 32.3678 31.6069 32.9073Z" fill="black"/>
<path d="M65.5751 30.6235C65.5751 30.9299 64.8849 31.1575 64.817 31.4531C64.7497 31.7463 65.1598 32.1922 65.03 32.4722C64.8959 32.7585 64.7374 33.0329 64.5563 33.2923C64.3864 33.5347 63.8612 33.4993 63.6459 33.7266C63.4351 33.933 63.2118 34.1263 62.9773 34.3055C62.7488 34.4947 62.4393 34.5344 62.1795 34.7086C61.9324 34.8742 61.9623 35.4816 61.6891 35.6324C61.428 35.7765 61.0283 35.6606 60.745 35.7901C60.4732 35.9144 60.3298 36.364 60.0391 36.474C59.7588 36.58 59.4119 36.5344 59.1156 36.6262C58.8287 36.7151 58.5078 36.7007 58.2073 36.7755C57.9155 36.8482 57.6926 37.2838 57.389 37.3425C57.0932 37.3997 56.7465 37.2471 56.4407 37.2905C56.142 37.3328 55.7946 36.9564 55.4874 36.9849C55.1866 37.0128 54.9032 37.187 54.5953 37.2011C54.2933 37.2149 53.9947 37.3473 53.6866 37.3473C53.3786 37.3473 53.0607 37.635 52.7588 37.6212C52.4508 37.6072 52.172 37.1711 51.8713 37.1432C51.564 37.1147 51.1974 37.5702 50.8987 37.5279C50.5929 37.4846 50.3506 37.0387 50.0549 36.9814C49.7512 36.9227 49.359 37.2414 49.0671 37.1687C48.7665 37.0939 48.5881 36.5751 48.3013 36.4862C48.0049 36.3944 47.6376 36.5188 47.3573 36.4127C47.0666 36.3027 46.7125 36.3204 46.4406 36.1961C46.1573 36.0665 45.954 35.7601 45.6929 35.616C45.4197 35.4652 45.2937 35.0912 45.0466 34.9256C44.7868 34.7514 44.391 34.7736 44.1625 34.5844C43.9213 34.3846 43.4693 34.3742 43.2657 34.1593C43.0504 33.932 42.9633 33.5504 42.7933 33.308C42.6143 33.0527 42.9657 32.513 42.8407 32.2432C42.711 31.9633 42.1687 31.8495 42.1014 31.5564C42.032 31.2502 41.9964 30.9374 41.9952 30.6235C41.9952 30.3171 42.459 30.0829 42.5268 29.7872C42.5941 29.494 42.2528 29.0729 42.3825 28.7929C42.5076 28.5231 42.4916 28.1083 42.6707 27.853C42.8407 27.6106 43.2649 27.5156 43.4802 27.2884C43.6838 27.0735 44.0481 27.0135 44.2893 26.8138C44.5178 26.6246 44.4887 26.0541 44.7485 25.8799C44.9955 25.7144 45.3404 25.6388 45.6137 25.488C45.8748 25.3439 46.2443 25.3682 46.5275 25.2387C46.7994 25.1144 47.2252 25.3593 47.5159 25.2494C47.7962 25.1433 48.0235 24.9115 48.3199 24.8197C48.6067 24.7308 48.7415 24.0529 49.042 23.978C49.3338 23.9054 49.6929 24.026 49.9965 23.9673C50.2923 23.91 50.6903 24.4449 50.9962 24.4016C51.2948 24.3593 51.5182 23.6452 51.8255 23.6167C52.1262 23.5889 52.4653 23.9587 52.7733 23.9446C53.0753 23.9308 53.3785 24.1475 53.6866 24.1475C53.9946 24.1475 54.3015 23.8501 54.6035 23.8639C54.9115 23.878 55.183 24.271 55.4838 24.2989C55.791 24.3273 56.1683 23.7296 56.467 23.7719C56.7728 23.8152 57.0091 24.2773 57.3049 24.3345C57.6086 24.3933 57.9889 24.1064 58.2809 24.1791C58.5814 24.2539 58.7623 24.7451 59.0491 24.834C59.3454 24.9258 59.528 25.2723 59.8083 25.3784C60.099 25.4883 60.639 24.9738 60.9109 25.0981C61.1941 25.2277 61.4388 25.4518 61.6999 25.5959C61.9731 25.7467 62.4075 25.6709 62.6546 25.8365C62.9144 26.0107 62.9783 26.4782 63.2068 26.6674C63.448 26.8672 63.8459 26.9273 64.0494 27.1422C64.2647 27.3695 64.2946 27.7768 64.4646 28.0192C64.6436 28.2744 64.6381 28.6281 64.763 28.8979C64.8927 29.1779 65.239 29.3897 65.3063 29.6828C65.3741 29.9784 65.5751 30.3171 65.5751 30.6235Z" fill="#3F3D56"/>
<path d="M33.0518 36.243C33.0518 36.243 43.2563 31.0279 49.8486 33.0061C56.4409 34.9842 65.652 31.5674 66.7357 32.7363C67.8194 33.9052 69.3546 46.4933 56.3506 47.2126C43.3466 47.9319 32.239 45.0546 32.239 45.0546L33.0518 36.243Z" fill="#FBBEBE"/>
<path d="M30.6487 35.6877C30.6487 35.6877 34.6773 35.4338 34.4967 36.8724C34.3161 38.3111 34.1355 49.4605 33.0518 49.7303C31.9681 50 23.3891 50 19.8672 50H0V32.7622C0 32.7622 14.0876 31.9271 21.1315 35.4338C21.1315 35.4338 29.6001 35.3121 30.6487 35.6877Z" fill="#3D9E67"/>
<path d="M49.5217 8.72534C49.1368 8.74699 48.7655 8.87498 48.4495 9.09495C48.1336 9.31493 47.8854 9.6182 47.7328 9.97075C47.2855 11.0474 47.8614 12.312 48.7261 13.0971C49.5907 13.8822 50.7014 14.3309 51.7105 14.9208C53.066 15.7131 54.2839 16.8129 54.9621 18.2246C55.6403 19.6364 55.7125 21.3851 54.9153 22.7338C54.1753 23.9857 52.8299 24.7349 51.5467 25.4259" stroke="#3F3D56" stroke-miterlimit="10"/>
<path d="M53.134 2.16138C52.749 2.18303 52.3778 2.31101 52.0618 2.53099C51.7458 2.75097 51.4976 3.05423 51.345 3.40678C50.8977 4.48341 51.4737 5.74806 52.3383 6.53315C53.2029 7.31823 54.3136 7.76698 55.3227 8.35683C56.6782 9.14909 57.8962 10.2489 58.5744 11.6606C59.2526 13.0724 59.3247 14.8212 58.5275 16.1699C57.7876 17.4217 56.4421 18.1709 55.1589 18.8619" stroke="#3F3D56" stroke-miterlimit="10"/>
<path d="M65.0106 3.67109C64.6929 3.45358 64.3207 3.32848 63.9356 3.30982C63.5505 3.29116 63.1678 3.37968 62.8304 3.56545C61.8147 4.1441 61.4926 5.49516 61.6936 6.64296C61.8946 7.79076 62.4969 8.82258 62.9322 9.90408C63.5168 11.3567 63.8037 12.9687 63.472 14.4984C63.1403 16.0281 62.1221 17.4549 60.6625 18.0354C59.3078 18.5742 57.7832 18.3466 56.3438 18.1108" stroke="#3F3D56" stroke-miterlimit="10"/>
<path d="M54.5445 17.2403C55.7415 17.2403 56.7118 16.7711 56.7118 16.1922C56.7118 15.6133 55.7415 15.144 54.5445 15.144C53.3475 15.144 52.3771 15.6133 52.3771 16.1922C52.3771 16.7711 53.3475 17.2403 54.5445 17.2403Z" fill="#57B894"/>
<path d="M54.2736 17.0604C55.4706 17.0604 56.4409 16.5911 56.4409 16.0123C56.4409 15.4334 55.4706 14.9641 54.2736 14.9641C53.0766 14.9641 52.1063 15.4334 52.1063 16.0123C52.1063 16.5911 53.0766 17.0604 54.2736 17.0604Z" stroke="#3F3D56" stroke-miterlimit="10"/>
<path d="M59.2404 16.3412C60.4374 16.3412 61.4077 15.8719 61.4077 15.293C61.4077 14.7141 60.4374 14.2449 59.2404 14.2449C58.0434 14.2449 57.0731 14.7141 57.0731 15.293C57.0731 15.8719 58.0434 16.3412 59.2404 16.3412Z" fill="#57B894"/>
<path d="M58.9695 16.1612C60.1664 16.1612 61.1368 15.692 61.1368 15.1131C61.1368 14.5342 60.1664 14.0649 58.9695 14.0649C57.7725 14.0649 56.8021 14.5342 56.8021 15.1131C56.8021 15.692 57.7725 16.1612 58.9695 16.1612Z" stroke="#3F3D56" stroke-miterlimit="10"/>
<path d="M59.9628 20.2972C61.1598 20.2972 62.1301 19.828 62.1301 19.2491C62.1301 18.6702 61.1598 18.2009 59.9628 18.2009C58.7658 18.2009 57.7955 18.6702 57.7955 19.2491C57.7955 19.828 58.7658 20.2972 59.9628 20.2972Z" fill="#57B894"/>
<path d="M59.6919 20.1173C60.8889 20.1173 61.8593 19.648 61.8593 19.0691C61.8593 18.4903 60.8889 18.021 59.6919 18.021C58.4949 18.021 57.5246 18.4903 57.5246 19.0691C57.5246 19.648 58.4949 20.1173 59.6919 20.1173Z" stroke="#3F3D56" stroke-miterlimit="10"/>
<path d="M59.5113 10.4066C60.7083 10.4066 61.6786 9.93733 61.6786 9.35845C61.6786 8.77957 60.7083 8.3103 59.5113 8.3103C58.3143 8.3103 57.344 8.77957 57.344 9.35845C57.344 9.93733 58.3143 10.4066 59.5113 10.4066Z" fill="#57B894"/>
<path d="M59.2404 10.2267C60.4374 10.2267 61.4077 9.7574 61.4077 9.17852C61.4077 8.59964 60.4374 8.13037 59.2404 8.13037C58.0434 8.13037 57.0731 8.59964 57.0731 9.17852C57.0731 9.7574 58.0434 10.2267 59.2404 10.2267Z" stroke="#3F3D56" stroke-miterlimit="10"/>
<path d="M54.093 9.77721C55.29 9.77721 56.2603 9.30793 56.2603 8.72906C56.2603 8.15018 55.29 7.68091 54.093 7.68091C52.896 7.68091 51.9257 8.15018 51.9257 8.72906C51.9257 9.30793 52.896 9.77721 54.093 9.77721Z" fill="#57B894"/>
<path d="M53.8221 9.59752C55.019 9.59752 55.9894 9.12825 55.9894 8.54937C55.9894 7.97049 55.019 7.50122 53.8221 7.50122C52.6251 7.50122 51.6547 7.97049 51.6547 8.54937C51.6547 9.12825 52.6251 9.59752 53.8221 9.59752Z" stroke="#3F3D56" stroke-miterlimit="10"/>
<path d="M56.5312 7.52941C57.7282 7.52941 58.6986 7.06013 58.6986 6.48126C58.6986 5.90238 57.7282 5.43311 56.5312 5.43311C55.3342 5.43311 54.3639 5.90238 54.3639 6.48126C54.3639 7.06013 55.3342 7.52941 56.5312 7.52941Z" fill="#57B894"/>
<path d="M56.2603 7.34947C57.4573 7.34947 58.4276 6.8802 58.4276 6.30132C58.4276 5.72245 57.4573 5.25317 56.2603 5.25317C55.0633 5.25317 54.093 5.72245 54.093 6.30132C54.093 6.8802 55.0633 7.34947 56.2603 7.34947Z" stroke="#3F3D56" stroke-miterlimit="10"/>
<path d="M61.8592 7.97887C63.0562 7.97887 64.0265 7.50959 64.0265 6.93072C64.0265 6.35184 63.0562 5.88257 61.8592 5.88257C60.6622 5.88257 59.6919 6.35184 59.6919 6.93072C59.6919 7.50959 60.6622 7.97887 61.8592 7.97887Z" fill="#57B894"/>
<path d="M61.5883 7.79918C62.7853 7.79918 63.7557 7.32991 63.7557 6.75103C63.7557 6.17215 62.7853 5.70288 61.5883 5.70288C60.3914 5.70288 59.421 6.17215 59.421 6.75103C59.421 7.32991 60.3914 7.79918 61.5883 7.79918Z" stroke="#3F3D56" stroke-miterlimit="10"/>
<path d="M65.8326 10.9462C67.0296 10.9462 67.9999 10.4769 67.9999 9.898C67.9999 9.31913 67.0296 8.84985 65.8326 8.84985C64.6356 8.84985 63.6653 9.31913 63.6653 9.898C63.6653 10.4769 64.6356 10.9462 65.8326 10.9462Z" fill="#57B894"/>
<path d="M65.5618 10.7665C66.7588 10.7665 67.7291 10.2972 67.7291 9.71831C67.7291 9.13944 66.7588 8.67017 65.5618 8.67017C64.3648 8.67017 63.3945 9.13944 63.3945 9.71831C63.3945 10.2972 64.3648 10.7665 65.5618 10.7665Z" stroke="#3F3D56" stroke-miterlimit="10"/>
<path d="M51.8353 5.73106C53.0323 5.73106 54.0026 5.26179 54.0026 4.68292C54.0026 4.10404 53.0323 3.63477 51.8353 3.63477C50.6383 3.63477 49.668 4.10404 49.668 4.68292C49.668 5.26179 50.6383 5.73106 51.8353 5.73106Z" fill="#57B894"/>
<path d="M51.5644 5.55114C52.7614 5.55114 53.7318 5.08186 53.7318 4.50298C53.7318 3.92411 52.7614 3.45483 51.5644 3.45483C50.3674 3.45483 49.3971 3.92411 49.3971 4.50298C49.3971 5.08186 50.3674 5.55114 51.5644 5.55114Z" stroke="#3F3D56" stroke-miterlimit="10"/>
<path d="M53.1899 2.31432C54.3869 2.31432 55.3572 1.84504 55.3572 1.26617C55.3572 0.68729 54.3869 0.218018 53.1899 0.218018C51.9929 0.218018 51.0226 0.68729 51.0226 1.26617C51.0226 1.84504 51.9929 2.31432 53.1899 2.31432Z" fill="#57B894"/>
<path d="M52.919 2.13463C54.116 2.13463 55.0863 1.66536 55.0863 1.08648C55.0863 0.507603 54.116 0.0383301 52.919 0.0383301C51.722 0.0383301 50.7516 0.507603 50.7516 1.08648C50.7516 1.66536 51.722 2.13463 52.919 2.13463Z" stroke="#3F3D56" stroke-miterlimit="10"/>
<path d="M65.7424 4.8319C66.9394 4.8319 67.9097 4.36262 67.9097 3.78375C67.9097 3.20487 66.9394 2.7356 65.7424 2.7356C64.5454 2.7356 63.5751 3.20487 63.5751 3.78375C63.5751 4.36262 64.5454 4.8319 65.7424 4.8319Z" fill="#57B894"/>
<path d="M65.4715 4.65221C66.6684 4.65221 67.6388 4.18294 67.6388 3.60406C67.6388 3.02518 66.6684 2.55591 65.4715 2.55591C64.2745 2.55591 63.3041 3.02518 63.3041 3.60406C63.3041 4.18294 64.2745 4.65221 65.4715 4.65221Z" stroke="#3F3D56" stroke-miterlimit="10"/>
<path d="M45.7849 13.1041C46.9819 13.1041 47.9522 12.6348 47.9522 12.056C47.9522 11.4771 46.9819 11.0078 45.7849 11.0078C44.5879 11.0078 43.6176 11.4771 43.6176 12.056C43.6176 12.6348 44.5879 13.1041 45.7849 13.1041Z" fill="#57B894"/>
<path d="M45.5139 12.9244C46.7109 12.9244 47.6813 12.4552 47.6813 11.8763C47.6813 11.2974 46.7109 10.8281 45.5139 10.8281C44.317 10.8281 43.3466 11.2974 43.3466 11.8763C43.3466 12.4552 44.317 12.9244 45.5139 12.9244Z" stroke="#3F3D56" stroke-miterlimit="10"/>
<path d="M53.2802 12.5646C54.4772 12.5646 55.4476 12.0953 55.4476 11.5164C55.4476 10.9375 54.4772 10.4683 53.2802 10.4683C52.0833 10.4683 51.1129 10.9375 51.1129 11.5164C51.1129 12.0953 52.0833 12.5646 53.2802 12.5646Z" fill="#57B894"/>
<path d="M53.0093 12.3849C54.2063 12.3849 55.1766 11.9156 55.1766 11.3367C55.1766 10.7578 54.2063 10.2886 53.0093 10.2886C51.8123 10.2886 50.842 10.7578 50.842 11.3367C50.842 11.9156 51.8123 12.3849 53.0093 12.3849Z" stroke="#3F3D56" stroke-miterlimit="10"/>
<path d="M63.1235 13.3739C64.3205 13.3739 65.2908 12.9046 65.2908 12.3257C65.2908 11.7469 64.3205 11.2776 63.1235 11.2776C61.9265 11.2776 60.9562 11.7469 60.9562 12.3257C60.9562 12.9046 61.9265 13.3739 63.1235 13.3739Z" fill="#57B894"/>
<path d="M62.8526 13.194C64.0496 13.194 65.02 12.7247 65.02 12.1458C65.02 11.5669 64.0496 11.0977 62.8526 11.0977C61.6556 11.0977 60.6853 11.5669 60.6853 12.1458C60.6853 12.7247 61.6556 13.194 62.8526 13.194Z" stroke="#3F3D56" stroke-miterlimit="10"/>
<path d="M57.8858 13.7335C59.0828 13.7335 60.0531 13.2642 60.0531 12.6854C60.0531 12.1065 59.0828 11.6372 57.8858 11.6372C56.6888 11.6372 55.7184 12.1065 55.7184 12.6854C55.7184 13.2642 56.6888 13.7335 57.8858 13.7335Z" fill="#57B894"/>
<path d="M57.6148 13.5536C58.8118 13.5536 59.7822 13.0843 59.7822 12.5054C59.7822 11.9265 58.8118 11.4573 57.6148 11.4573C56.4179 11.4573 55.4475 11.9265 55.4475 12.5054C55.4475 13.0843 56.4179 13.5536 57.6148 13.5536Z" stroke="#3F3D56" stroke-miterlimit="10"/>
<path d="M58.247 4.74205C59.444 4.74205 60.4143 4.27278 60.4143 3.6939C60.4143 3.11502 59.444 2.64575 58.247 2.64575C57.05 2.64575 56.0797 3.11502 56.0797 3.6939C56.0797 4.27278 57.05 4.74205 58.247 4.74205Z" fill="#57B894"/>
<path d="M57.9761 4.56212C59.1731 4.56212 60.1434 4.09285 60.1434 3.51397C60.1434 2.93509 59.1731 2.46582 57.9761 2.46582C56.7791 2.46582 55.8088 2.93509 55.8088 3.51397C55.8088 4.09285 56.7791 4.56212 57.9761 4.56212Z" stroke="#3F3D56" stroke-miterlimit="10"/>
<path d="M48.9455 10.3168C50.1425 10.3168 51.1129 9.84748 51.1129 9.26861C51.1129 8.68973 50.1425 8.22046 48.9455 8.22046C47.7485 8.22046 46.7782 8.68973 46.7782 9.26861C46.7782 9.84748 47.7485 10.3168 48.9455 10.3168Z" fill="#57B894"/>
<path d="M48.6747 10.1368C49.8716 10.1368 50.842 9.66756 50.842 9.08868C50.842 8.5098 49.8716 8.04053 48.6747 8.04053C47.4777 8.04053 46.5073 8.5098 46.5073 9.08868C46.5073 9.66756 47.4777 10.1368 48.6747 10.1368Z" stroke="#3F3D56" stroke-miterlimit="10"/>
<path d="M50.2098 14.3629C51.4068 14.3629 52.3771 13.8936 52.3771 13.3148C52.3771 12.7359 51.4068 12.2666 50.2098 12.2666C49.0128 12.2666 48.0425 12.7359 48.0425 13.3148C48.0425 13.8936 49.0128 14.3629 50.2098 14.3629Z" fill="#57B894"/>
<path d="M49.9389 14.183C51.1359 14.183 52.1063 13.7137 52.1063 13.1348C52.1063 12.5559 51.1359 12.0867 49.9389 12.0867C48.742 12.0867 47.7716 12.5559 47.7716 13.1348C47.7716 13.7137 48.742 14.183 49.9389 14.183Z" stroke="#3F3D56" stroke-miterlimit="10"/>
<g opacity="0.3">
<path opacity="0.3" d="M50.2603 20.4716C50.5662 19.9265 50.622 19.3778 50.385 19.2458C50.1479 19.1139 49.7077 19.4488 49.4018 19.9938C49.0959 20.5389 49.04 21.0877 49.2771 21.2196C49.5141 21.3515 49.9543 21.0166 50.2603 20.4716Z" fill="#57B894"/>
<path opacity="0.3" d="M50.1174 20.5538C50.4233 20.0088 50.4792 19.46 50.2421 19.3281C50.005 19.1962 49.5648 19.5311 49.2589 20.0761C48.953 20.6212 48.8971 21.1699 49.1342 21.3018C49.3713 21.4338 49.8114 21.0989 50.1174 20.5538Z" stroke="#3F3D56" stroke-miterlimit="10"/>
</g>
<g opacity="0.3">
<path opacity="0.3" d="M61.5574 23.0845C61.7385 22.883 61.5065 22.3821 61.0392 21.9657C60.5719 21.5493 60.0463 21.3751 59.8652 21.5766C59.6841 21.7781 59.9161 22.279 60.3834 22.6954C60.8507 23.1117 61.3763 23.286 61.5574 23.0845Z" fill="#57B894"/>
<path opacity="0.3" d="M61.5079 22.9277C61.689 22.7263 61.457 22.2254 60.9897 21.809C60.5224 21.3926 59.9968 21.2184 59.8157 21.4198C59.6346 21.6213 59.8666 22.1222 60.3339 22.5386C60.8011 22.955 61.3268 23.1292 61.5079 22.9277Z" stroke="#3F3D56" stroke-miterlimit="10"/>
</g>
<g opacity="0.3">
<path opacity="0.3" d="M51.4431 17.4197C51.6242 17.2182 51.3922 16.7173 50.925 16.3009C50.4577 15.8845 49.9321 15.7103 49.751 15.9118C49.5699 16.1133 49.8018 16.6142 50.2691 17.0306C50.7364 17.447 51.262 17.6212 51.4431 17.4197Z" fill="#57B894"/>
<path opacity="0.3" d="M51.3936 17.2629C51.5747 17.0615 51.3427 16.5606 50.8755 16.1442C50.4082 15.7278 49.8826 15.5536 49.7015 15.755C49.5204 15.9565 49.7523 16.4574 50.2196 16.8738C50.6869 17.2902 51.2125 17.4644 51.3936 17.2629Z" stroke="#3F3D56" stroke-miterlimit="10"/>
</g>
</g>
<defs>
<clipPath id="clip0">
<rect width="68" height="50" fill="white"/>
</clipPath>
</defs>
</svg>
