<svg width="579" height="417" viewBox="0 0 579 417" fill="none" xmlns="http://www.w3.org/2000/svg">
<g clip-path="url(#clip0)">
<path d="M505.463 143.457C484.508 127.785 451.688 112.963 415.417 102.792C382.392 93.532 350.181 89.0611 324.71 90.2028L324.577 87.2394C350.352 86.0847 382.897 90.5931 416.217 99.9362C452.826 110.201 486.003 125.198 507.239 141.081L505.463 143.457Z" fill="#CCCCCC"/>
<path d="M504 150.5C504.019 163.745 501.037 176.844 495.248 188.942C494.765 189.955 494.261 190.959 493.737 191.953C483.669 211.153 466.91 226.61 446.193 235.804C425.477 244.997 402.026 247.384 379.666 242.575C357.306 237.766 337.355 226.044 323.069 209.323C308.783 192.601 301.003 171.866 301 150.5C301 148.313 301.08 146.143 301.24 143.99C301.316 142.895 301.414 141.806 301.535 140.725C304.227 116.639 316.746 94.4336 336.511 78.6918C356.276 62.9501 381.777 54.8728 407.752 56.1269C433.727 57.381 458.193 67.8708 476.103 85.4315C494.013 102.992 503.999 126.284 504 150.5V150.5Z" fill="#3D9E67"/>
<path opacity="0.1" d="M494.749 195.831C494.277 196.893 493.786 197.945 493.275 198.987C490.381 199.301 487.335 199.53 484.137 199.672C481.489 199.791 478.765 199.85 475.98 199.85C451.662 199.85 422.394 195.359 392.495 186.977C359.174 177.633 329.029 164.564 307.61 150.174C306.881 149.685 306.164 149.195 305.461 148.703C305.535 147.555 305.631 146.414 305.748 145.28C306.884 146.09 308.055 146.901 309.262 147.712C330.429 161.93 360.272 174.86 393.296 184.12C422.934 192.432 451.925 196.884 475.966 196.884C478.714 196.884 481.393 196.826 484.004 196.709C487.805 196.537 491.387 196.244 494.749 195.831Z" fill="black"/>
<path d="M475.981 197.478C451.663 197.478 422.394 192.987 392.496 184.603C359.176 175.26 329.029 162.191 307.61 147.802C285.743 133.113 275.49 118.639 278.738 107.046C281.985 95.4532 298.265 88.4191 324.577 87.2394L324.71 90.2028C312.422 90.7536 302.409 92.5807 294.947 95.6333C287.503 98.6783 283.01 102.787 281.593 107.847C280.175 112.906 281.879 118.752 286.656 125.224C291.445 131.712 299.051 138.479 309.263 145.339C330.427 159.557 360.271 172.487 393.296 181.747C422.935 190.058 451.924 194.511 475.966 194.512C478.713 194.512 481.392 194.454 484.003 194.337C496.29 193.786 506.304 191.959 513.766 188.906C521.21 185.861 525.703 181.752 527.12 176.693C529.665 167.609 521.974 155.805 505.463 143.457L507.239 141.081C515.735 147.436 522.025 153.7 525.932 159.698C530.122 166.129 531.482 172.117 529.975 177.494C526.727 189.086 510.448 196.12 484.136 197.3C481.488 197.419 478.765 197.478 475.981 197.478Z" fill="#CCCCCC"/>
<path d="M406.877 38.5882C407.504 38.5882 408.012 38.0799 408.012 37.4529C408.012 36.8259 407.504 36.3176 406.877 36.3176C406.25 36.3176 405.742 36.8259 405.742 37.4529C405.742 38.0799 406.25 38.5882 406.877 38.5882Z" fill="#F2F2F2"/>
<path d="M256.327 87.8514C257.405 87.8514 258.28 86.977 258.28 85.8984C258.28 84.8197 257.405 83.9453 256.327 83.9453C255.249 83.9453 254.375 84.8197 254.375 85.8984C254.375 86.977 255.249 87.8514 256.327 87.8514Z" fill="#CCCCCC"/>
<path d="M252.166 166.198C254.296 166.198 256.023 164.471 256.023 162.34C256.023 160.209 254.296 158.482 252.166 158.482C250.036 158.482 248.31 160.209 248.31 162.34C248.31 164.471 250.036 166.198 252.166 166.198Z" fill="#CCCCCC"/>
<path d="M483.665 46.8359C485.084 46.8359 486.235 45.6847 486.235 44.2645C486.235 42.8444 485.084 41.6931 483.665 41.6931C482.245 41.6931 481.094 42.8444 481.094 44.2645C481.094 45.6847 482.245 46.8359 483.665 46.8359Z" fill="#CCCCCC"/>
<path d="M574.827 155.162C577.132 155.162 579 153.293 579 150.987C579 148.682 577.132 146.812 574.827 146.812C572.522 146.812 570.654 148.682 570.654 150.987C570.654 153.293 572.522 155.162 574.827 155.162Z" fill="#CCCCCC"/>
<path d="M542.194 86.0973C543.183 86.0973 543.984 85.2953 543.984 84.306C543.984 83.3167 543.183 82.5148 542.194 82.5148C541.205 82.5148 540.404 83.3167 540.404 84.306C540.404 85.2953 541.205 86.0973 542.194 86.0973Z" fill="#CCCCCC"/>
<path d="M324.793 64.0881C326.336 64.0881 327.587 62.8369 327.587 61.2936C327.587 59.7503 326.336 58.4992 324.793 58.4992C323.251 58.4992 322 59.7503 322 61.2936C322 62.8369 323.251 64.0881 324.793 64.0881Z" fill="#CCCCCC"/>
<path d="M535.927 144.313C536.916 144.313 537.718 143.511 537.718 142.522C537.718 141.533 536.916 140.731 535.927 140.731C534.938 140.731 534.137 141.533 534.137 142.522C534.137 143.511 534.938 144.313 535.927 144.313Z" fill="#CCCCCC"/>
<path d="M261.245 219.063C262.475 219.063 263.473 218.065 263.473 216.833C263.473 215.602 262.475 214.604 261.245 214.604C260.014 214.604 259.016 215.602 259.016 216.833C259.016 218.065 260.014 219.063 261.245 219.063Z" fill="#CCCCCC"/>
<path d="M306.258 250.278C307.591 250.278 308.672 249.197 308.672 247.864C308.672 246.531 307.591 245.45 306.258 245.45C304.925 245.45 303.845 246.531 303.845 247.864C303.845 249.197 304.925 250.278 306.258 250.278Z" fill="#CCCCCC"/>
<path d="M376.415 4.76453H371.653V0H369.098V4.76453H364.333V7.32283H369.098V12.0874H371.653V7.32283H376.415V4.76453Z" fill="#CCCCCC"/>
<path d="M486.89 262.57H483.899V259.578H482.295V262.57H479.305V264.175H482.295V267.167H483.899V264.175H486.89V262.57Z" fill="#CCCCCC"/>
<path d="M555.912 247.257H553.677V245.02H552.476V247.257H550.241V248.458H552.476V250.694H553.677V248.458H555.912V247.257Z" fill="#CCCCCC"/>
<path opacity="0.1" d="M405.742 86.2768C410.338 86.2768 414.064 82.5494 414.064 77.9514C414.064 73.3535 410.338 69.6261 405.742 69.6261C401.146 69.6261 397.42 73.3535 397.42 77.9514C397.42 82.5494 401.146 86.2768 405.742 86.2768Z" fill="black"/>
<path opacity="0.1" d="M341.815 147.203C346.411 147.203 350.137 143.476 350.137 138.878C350.137 134.28 346.411 130.552 341.815 130.552C337.219 130.552 333.493 134.28 333.493 138.878C333.493 143.476 337.219 147.203 341.815 147.203Z" fill="black"/>
<path opacity="0.1" d="M433.734 230.835C438.33 230.835 442.056 227.108 442.056 222.51C442.056 217.912 438.33 214.184 433.734 214.184C429.138 214.184 425.412 217.912 425.412 222.51C425.412 227.108 429.138 230.835 433.734 230.835Z" fill="black"/>
<path opacity="0.1" d="M405.742 160.07C410.338 160.07 414.064 156.342 414.064 151.744C414.064 147.146 410.338 143.419 405.742 143.419C401.146 143.419 397.42 147.146 397.42 151.744C397.42 156.342 401.146 160.07 405.742 160.07Z" fill="black"/>
<path opacity="0.1" d="M345.976 205.859C350.572 205.859 354.298 202.132 354.298 197.534C354.298 192.936 350.572 189.208 345.976 189.208C341.38 189.208 337.654 192.936 337.654 197.534C337.654 202.132 341.38 205.859 345.976 205.859Z" fill="black"/>
<path opacity="0.1" d="M450.378 115.415C454.974 115.415 458.699 111.688 458.699 107.09C458.699 102.492 454.974 98.7648 450.378 98.7648C445.781 98.7648 442.056 102.492 442.056 107.09C442.056 111.688 445.781 115.415 450.378 115.415Z" fill="black"/>
<path opacity="0.1" d="M477.991 171.801C482.587 171.801 486.313 168.073 486.313 163.475C486.313 158.878 482.587 155.15 477.991 155.15C473.395 155.15 469.669 158.878 469.669 163.475C469.669 168.073 473.395 171.801 477.991 171.801Z" fill="black"/>
<path d="M405.742 126.39C411.801 126.39 416.712 121.476 416.712 115.415C416.712 109.355 411.801 104.441 405.742 104.441C399.684 104.441 394.772 109.355 394.772 115.415C394.772 121.476 399.684 126.39 405.742 126.39Z" fill="white"/>
<path d="M405.742 99.5217C401.629 99.5217 397.684 101.156 394.776 104.066C391.867 106.976 390.233 110.922 390.233 115.037C390.233 123.606 405.742 151.744 405.742 151.744C405.742 151.744 421.251 123.606 421.251 115.037C421.251 110.922 419.617 106.976 416.709 104.066C413.8 101.156 409.855 99.5217 405.742 99.5217ZM405.742 122.606C404.321 122.606 402.931 122.184 401.749 121.394C400.567 120.604 399.646 119.481 399.102 118.167C398.558 116.853 398.416 115.408 398.693 114.013C398.971 112.618 399.655 111.337 400.66 110.331C401.665 109.326 402.946 108.641 404.34 108.364C405.734 108.086 407.179 108.229 408.493 108.773C409.806 109.317 410.928 110.238 411.718 111.421C412.508 112.603 412.929 113.993 412.929 115.415C412.929 116.36 412.743 117.295 412.382 118.167C412.021 119.039 411.492 119.832 410.824 120.5C410.157 121.167 409.364 121.697 408.493 122.058C407.621 122.42 406.686 122.606 405.742 122.606Z" fill="#CCCCCC"/>
<path d="M345.976 173.314C352.035 173.314 356.946 168.401 356.946 162.34C356.946 156.279 352.035 151.366 345.976 151.366C339.918 151.366 335.006 156.279 335.006 162.34C335.006 168.401 339.918 173.314 345.976 173.314Z" fill="white"/>
<path d="M345.976 146.446C341.863 146.446 337.918 148.081 335.01 150.991C332.101 153.9 330.467 157.847 330.467 161.962C330.467 170.531 345.976 198.669 345.976 198.669C345.976 198.669 361.485 170.531 361.485 161.962C361.485 159.924 361.084 157.907 360.304 156.024C359.525 154.142 358.383 152.431 356.943 150.991C355.502 149.55 353.793 148.407 351.911 147.627C350.03 146.848 348.013 146.446 345.976 146.446ZM345.976 169.53C344.555 169.53 343.165 169.108 341.983 168.318C340.801 167.528 339.88 166.405 339.336 165.092C338.792 163.778 338.65 162.332 338.927 160.937C339.205 159.543 339.889 158.261 340.894 157.256C341.899 156.25 343.18 155.566 344.574 155.288C345.968 155.011 347.413 155.153 348.727 155.697C350.04 156.242 351.162 157.163 351.952 158.346C352.742 159.528 353.163 160.918 353.163 162.34C353.163 163.284 352.977 164.219 352.616 165.092C352.255 165.964 351.726 166.757 351.058 167.424C350.391 168.092 349.598 168.622 348.727 168.983C347.855 169.344 346.92 169.53 345.976 169.53Z" fill="#CCCCCC"/>
<path d="M477.991 139.256C484.049 139.256 488.961 134.343 488.961 128.282C488.961 122.221 484.049 117.308 477.991 117.308C471.932 117.308 467.021 122.221 467.021 128.282C467.021 134.343 471.932 139.256 477.991 139.256Z" fill="white"/>
<path d="M405.742 52.597C411.801 52.597 416.712 47.6836 416.712 41.6227C416.712 35.5617 411.801 30.6484 405.742 30.6484C399.684 30.6484 394.772 35.5617 394.772 41.6227C394.772 47.6836 399.684 52.597 405.742 52.597Z" fill="white"/>
<path d="M405.742 25.7289C401.629 25.7289 397.684 27.3635 394.776 30.2732C391.867 33.1829 390.233 37.1293 390.233 41.2443C390.233 49.8132 405.742 77.9514 405.742 77.9514C405.742 77.9514 421.251 49.8132 421.251 41.2443C421.251 37.1293 419.617 33.1829 416.709 30.2732C413.8 27.3635 409.855 25.7289 405.742 25.7289ZM405.742 48.8128C404.321 48.8128 402.931 48.3911 401.749 47.601C400.567 46.811 399.646 45.688 399.102 44.3742C398.558 43.0604 398.416 41.6147 398.693 40.22C398.971 38.8252 399.655 37.5441 400.66 36.5385C401.665 35.533 402.946 34.8482 404.34 34.5708C405.734 34.2933 407.179 34.4357 408.493 34.9799C409.806 35.5241 410.928 36.4457 411.718 37.6281C412.508 38.8105 412.929 40.2006 412.929 41.6227C412.929 42.5669 412.743 43.5019 412.382 44.3742C412.021 45.2466 411.492 46.0392 410.824 46.7069C410.157 47.3745 409.364 47.9041 408.493 48.2655C407.621 48.6268 406.686 48.8128 405.742 48.8128Z" fill="#CCCCCC"/>
<path d="M433.734 198.29C439.792 198.29 444.703 193.377 444.703 187.316C444.703 181.255 439.792 176.342 433.734 176.342C427.675 176.342 422.764 181.255 422.764 187.316C422.764 193.377 427.675 198.29 433.734 198.29Z" fill="white"/>
<path d="M433.734 171.422C429.62 171.422 425.676 173.057 422.767 175.967C419.859 178.876 418.225 182.823 418.225 186.938C418.225 195.507 433.734 223.645 433.734 223.645C433.734 223.645 449.243 195.507 449.243 186.938C449.243 184.9 448.841 182.883 448.062 181C447.283 179.118 446.14 177.407 444.7 175.967C443.26 174.526 441.55 173.383 439.669 172.603C437.787 171.824 435.77 171.422 433.734 171.422ZM433.734 194.506C432.312 194.506 430.923 194.085 429.741 193.294C428.559 192.504 427.638 191.382 427.094 190.068C426.55 188.754 426.407 187.308 426.685 185.913C426.962 184.519 427.647 183.238 428.652 182.232C429.657 181.226 430.937 180.542 432.332 180.264C433.726 179.987 435.171 180.129 436.484 180.673C437.797 181.218 438.92 182.139 439.71 183.322C440.499 184.504 440.921 185.894 440.921 187.316C440.921 188.26 440.735 189.195 440.374 190.068C440.013 190.94 439.483 191.733 438.816 192.4C438.148 193.068 437.356 193.598 436.484 193.959C435.612 194.32 434.678 194.506 433.734 194.506Z" fill="#3F3D56"/>
<path d="M341.815 113.902C347.874 113.902 352.785 108.988 352.785 102.927C352.785 96.8665 347.874 91.9531 341.815 91.9531C335.757 91.9531 330.846 96.8665 330.846 102.927C330.846 108.988 335.757 113.902 341.815 113.902Z" fill="white"/>
<path d="M341.815 87.0337C337.702 87.0337 333.757 88.6683 330.849 91.578C327.94 94.4877 326.306 98.4341 326.306 102.549C326.306 111.118 341.815 139.256 341.815 139.256C341.815 139.256 357.324 111.118 357.324 102.549C357.324 98.4341 355.69 94.4877 352.782 91.578C349.873 88.6683 345.928 87.0337 341.815 87.0337ZM341.815 110.118C340.394 110.118 339.004 109.696 337.822 108.906C336.64 108.116 335.719 106.993 335.175 105.679C334.631 104.365 334.489 102.92 334.766 101.525C335.044 100.13 335.728 98.8489 336.733 97.8434C337.738 96.8378 339.019 96.153 340.413 95.8756C341.807 95.5981 343.252 95.7405 344.566 96.2847C345.879 96.8289 347.001 97.7505 347.791 98.9329C348.581 100.115 349.002 101.505 349.002 102.927C349.002 103.872 348.816 104.807 348.455 105.679C348.094 106.551 347.565 107.344 346.897 108.012C346.23 108.679 345.438 109.209 344.566 109.57C343.694 109.932 342.759 110.118 341.815 110.118Z" fill="#3F3D56"/>
<path d="M450.377 83.2494C456.436 83.2494 461.347 78.3361 461.347 72.2751C461.347 66.2142 456.436 61.3008 450.377 61.3008C444.319 61.3008 439.408 66.2142 439.408 72.2751C439.408 78.3361 444.319 83.2494 450.377 83.2494Z" fill="white"/>
<path d="M448.509 58C444.396 58 440.451 59.6347 437.542 62.5444C434.634 65.4541 433 69.4004 433 73.5154C433 82.0843 448.509 110.223 448.509 110.223C448.509 110.223 464.018 82.0843 464.018 73.5154C464.018 69.4004 462.384 65.454 459.475 62.5443C456.567 59.6346 452.622 58 448.509 58ZM448.509 81.0839C447.087 81.0839 445.698 80.6622 444.516 79.8721C443.334 79.0821 442.413 77.9592 441.869 76.6453C441.325 75.3315 441.183 73.8858 441.46 72.4911C441.737 71.0964 442.422 69.8152 443.427 68.8097C444.432 67.8041 445.713 67.1193 447.107 66.8419C448.501 66.5645 449.946 66.7068 451.259 67.251C452.572 67.7952 453.695 68.7168 454.485 69.8992C455.274 71.0816 455.696 72.4718 455.696 73.8938C455.696 75.8007 454.939 77.6296 453.591 78.978C452.243 80.3264 450.415 81.0839 448.509 81.0839V81.0839Z" fill="#3F3D56"/>
<path d="M135.359 408.491L144.09 407.5L144.423 373.339L131.538 374.802L135.359 408.491Z" fill="#FFB8B8"/>
<path d="M161.847 413.699L134.408 416.814L133.205 406.208L150.043 404.297C152.854 403.977 155.678 404.789 157.891 406.552C160.105 408.315 161.528 410.886 161.847 413.699Z" fill="#2F2E41"/>
<path d="M45.5698 407.946L54.3566 407.945L58.5365 374.039L45.5684 374.04L45.5698 407.946Z" fill="#FFB8B8"/>
<path d="M71.3027 416.107L43.6874 416.108L43.6869 405.434L60.6327 405.434C63.4624 405.433 66.1763 406.558 68.1774 408.56C70.1784 410.561 71.3026 413.276 71.3027 416.107Z" fill="#2F2E41"/>
<path d="M108.613 256.321L113.63 272.647L140.864 331.607L148.032 387.534L131.547 388.251L121.513 336.626L87.1113 299.342L57.0096 396.855L43.3921 395.421C43.3921 395.421 54.8594 269.227 70.627 256.321C70.627 256.321 96.4285 244.132 108.613 256.321Z" fill="#2F2E41"/>
<path d="M86.3579 185.878C96.0798 185.878 103.961 177.993 103.961 168.267C103.961 158.541 96.0798 150.657 86.3579 150.657C76.636 150.657 68.7548 158.541 68.7548 168.267C68.7548 177.993 76.636 185.878 86.3579 185.878Z" fill="#FFB8B8"/>
<path d="M110.404 259.548C110.404 259.548 112.554 186.413 82.4527 191.432C52.3509 196.451 64.8933 267.076 64.8933 267.076C64.8933 267.076 71.3437 279.982 87.1113 265.642C102.879 251.302 110.404 259.548 110.404 259.548Z" fill="#CCCCCC"/>
<path opacity="0.2" d="M68.8356 222.263L75.9188 249.426L86.7103 260.222L71.7024 255.246L68.8356 222.263Z" fill="black"/>
<path d="M110.627 290.478C109.636 290.119 108.736 289.547 107.991 288.802C107.245 288.057 106.672 287.158 106.311 286.167C105.951 285.177 105.812 284.12 105.904 283.07C105.996 282.02 106.317 281.002 106.845 280.09L90.1031 260.7L103.301 258.981L117.176 277.658C118.649 278.646 119.709 280.141 120.154 281.858C120.6 283.576 120.4 285.398 119.593 286.978C118.786 288.558 117.427 289.787 115.775 290.433C114.122 291.078 112.29 291.094 110.627 290.478Z" fill="#FFB8B8"/>
<path d="M90.2433 206.328L92.1282 243.415L114.346 272.095L105.029 279.265L74.9272 249.151C74.9272 249.151 64.1766 212.583 72.0604 201.828C75.0168 197.795 78.2756 196.686 81.1942 196.875C83.5956 197.075 85.8411 198.147 87.5077 199.888C89.1744 201.629 90.1473 203.919 90.2433 206.328Z" fill="#CCCCCC"/>
<path d="M84.2643 186.771C84.3484 186.696 84.4137 186.602 84.4552 186.497C84.4966 186.392 84.513 186.279 84.5031 186.166C84.4931 186.053 84.4571 185.945 84.3978 185.849C84.3385 185.753 84.2577 185.672 84.1617 185.612C82.5985 184.644 81.3249 183.272 80.4747 181.641C79.6245 180.01 79.2291 178.18 79.33 176.343C79.4309 174.507 80.0244 172.731 81.0482 171.203C82.0719 169.675 83.4881 168.451 85.148 167.66C90.3233 165.191 97.3363 167.112 101.162 162.368C101.94 161.353 102.49 160.182 102.775 158.936C103.06 157.689 103.073 156.395 102.813 155.143C101.987 150.662 98.6202 147.335 94.8497 145.055C90.2179 142.254 84.8945 140.806 79.4826 140.877C74.0707 140.947 68.7868 142.532 64.2294 145.453C59.672 148.374 56.0234 152.513 53.697 157.402C51.3706 162.291 50.4594 167.734 51.0666 173.115C51.5533 177.427 52.8833 182.262 50.3203 185.763C48.0646 188.844 43.8068 189.422 40.0666 190.188C32.0443 191.83 24.305 195.618 18.8609 201.737C13.4169 207.857 10.5127 216.442 12.1541 224.468C13.7954 232.493 20.3805 239.546 28.4739 240.79C35.0617 241.803 41.864 239.004 46.7016 234.418C51.5393 229.831 54.5972 223.637 56.526 217.255C58.8152 209.679 59.7183 201.516 63.8513 194.768C67.8958 188.164 76.6115 183.431 83.4425 186.87C83.5734 186.938 83.722 186.965 83.8686 186.948C84.0153 186.93 84.1532 186.869 84.2643 186.771Z" fill="#2F2E41"/>
<path d="M220.746 417H0.716709C0.526626 417 0.344327 416.925 0.209919 416.79C0.0755096 416.656 0 416.473 0 416.283C0 416.093 0.0755096 415.911 0.209919 415.776C0.344327 415.642 0.526626 415.566 0.716709 415.566H220.746C220.936 415.566 221.119 415.642 221.253 415.776C221.387 415.911 221.463 416.093 221.463 416.283C221.463 416.473 221.387 416.656 221.253 416.79C221.119 416.925 220.936 417 220.746 417Z" fill="#3F3D56"/>
</g>
<g clip-path="url(#clip1)">
<path d="M447.667 123.209C459.987 123.209 469.974 113.205 469.974 100.863C469.974 88.5221 459.987 78.5175 447.667 78.5175C435.347 78.5175 425.36 88.5221 425.36 100.863C425.36 113.205 435.347 123.209 447.667 123.209Z" fill="#FF6584"/>
<path d="M508.856 117.524C508.906 117.515 508.943 117.481 509 117.49C508.975 117.393 508.942 117.298 508.902 117.207C508.831 117.304 508.759 117.403 508.695 117.489L508.856 117.524Z" fill="white"/>
<path d="M359.24 153.752C359.37 158.627 360.186 163.46 361.662 168.107C361.696 168.215 361.731 168.321 361.766 168.429H370.803C370.794 168.333 370.784 168.225 370.775 168.107C370.172 161.168 366.698 118.932 370.852 111.71C370.489 112.296 358.54 131.702 359.24 153.752Z" fill="#E6E6E6"/>
<path d="M359.918 168.107C359.994 168.215 360.073 168.323 360.153 168.429H366.932C366.881 168.337 366.822 168.23 366.753 168.107C365.632 166.082 362.317 160.028 359.24 153.752C355.933 147.007 352.899 140.007 353.155 137.473C353.076 138.044 350.788 155.465 359.918 168.107Z" fill="#E6E6E6"/>
<path d="M430.367 169.268C430.253 173.518 429.543 177.732 428.256 181.783C428.226 181.877 428.196 181.97 428.165 182.064H420.286C420.294 181.98 420.303 181.886 420.311 181.783C420.836 175.733 423.865 138.912 420.244 132.615C420.561 133.126 430.978 150.045 430.367 169.268Z" fill="#E6E6E6"/>
<path d="M429.776 181.783C429.71 181.877 429.641 181.971 429.571 182.064H423.661C423.705 181.984 423.757 181.89 423.818 181.783C424.794 180.018 427.684 174.74 430.367 169.268C433.25 163.388 435.895 157.285 435.672 155.076C435.741 155.574 437.736 170.761 429.776 181.783Z" fill="#E6E6E6"/>
<path d="M340.283 44.1378L343.957 41.194C341.103 40.8785 339.93 42.4379 339.45 43.6722C337.22 42.7447 334.792 43.9603 334.792 43.9603L342.144 46.6337C341.773 45.6414 341.127 44.7756 340.283 44.1378Z" fill="#3F3D56"/>
<path d="M450.946 28.985L454.621 26.0412C451.766 25.7258 450.594 27.2852 450.114 28.5194C447.884 27.5919 445.456 28.8075 445.456 28.8075L452.808 31.481C452.437 30.4887 451.791 29.6228 450.946 28.985Z" fill="#3F3D56"/>
<path d="M505.006 145.398C505.006 147.837 504.921 150.256 504.751 152.656C503.442 171.585 496.89 189.773 485.831 205.178C484.386 207.198 482.868 209.162 481.279 211.07C477.159 216.018 472.586 220.569 467.618 224.663L445.842 211.863L432.822 181.422C432.822 181.422 452.248 142.021 504.971 142.735C504.993 143.62 505.005 144.507 505.006 145.398Z" fill="#3F3D56"/>
<path d="M504.751 152.655C503.749 166.801 499.832 180.584 493.245 193.137C486.659 205.689 477.547 216.737 466.484 225.585L446.253 213.694L434.707 186.697C434.707 186.697 453.417 148.75 504.751 152.655Z" fill="#3D9E67"/>
<path d="M485.831 205.178C484.386 207.198 482.868 209.162 481.279 211.07C470.626 223.891 457.015 233.918 441.622 240.283C438.506 241.57 435.316 242.705 432.052 243.688C408.489 249.965 383.525 248.378 360.944 239.166C338.611 229.18 320.563 211.545 310.043 189.429C308.629 186.451 307.358 183.398 306.229 180.27C325.919 165.821 364.717 145.13 407.003 165.235C418.7 170.797 429.144 175.866 438.336 180.443C461.661 192.025 477.185 200.375 485.831 205.178Z" fill="#3F3D56"/>
<path d="M481.278 211.069C470.267 224.29 456.113 234.523 440.119 240.829C424.126 247.135 406.806 249.311 389.753 247.156C372.701 245 356.463 238.584 342.534 228.496C328.605 218.409 317.432 204.974 310.043 189.429C326.487 176.402 364.415 152.992 406.038 172.779C416.742 177.869 426.299 182.508 434.707 186.697C459.22 198.867 474.319 207.138 481.278 211.069Z" fill="#3D9E67"/>
<path d="M452.254 235.149C448.811 237.062 445.261 238.776 441.623 240.283C429.24 245.394 415.975 248.017 402.582 248C386.735 247.994 371.105 244.307 356.919 237.23C342.734 230.153 330.379 219.877 320.826 207.211C345.288 204.627 412.906 201.143 452.254 235.149Z" fill="#3F3D56"/>
<path d="M441.622 240.283C422.422 248.192 401.277 250.075 380.984 245.685C360.692 241.295 342.208 230.838 327.977 215.696C336.874 214.387 406.729 205.395 441.622 240.283Z" fill="#3D9E67"/>
<path d="M487.826 88.5007V88.5039C414.691 34.3356 330.898 72.4621 330.251 72.7548V72.7516C339.749 63.2387 351.026 55.6961 363.438 50.5558C375.85 45.4155 389.152 42.7784 402.582 42.7956C438.138 42.7955 469.462 60.9461 487.826 88.5007Z" fill="#E6E6E6"/>
<path d="M336.117 147.387C348.489 145.152 354.829 122.841 350.278 97.5524C345.726 72.2642 332.007 53.5756 319.635 55.8101C307.263 58.0447 300.923 80.3563 305.474 105.644C310.026 130.933 323.745 149.621 336.117 147.387Z" fill="#3F3D56"/>
<path d="M339.297 176.92C338.563 121.375 320.011 69.2487 319.824 68.7291L318.132 69.3405C318.318 69.8576 336.769 121.71 337.498 176.945L339.297 176.92Z" fill="#3D9E67"/>
<path d="M306.381 95.3147L305.828 97.0294L328.039 104.225L328.592 102.51L306.381 95.3147Z" fill="#3D9E67"/>
<path d="M348.162 93.3832L329.861 107.902L330.978 109.314L349.279 94.7959L348.162 93.3832Z" fill="#3D9E67"/>
<path d="M395.607 139.379C409.211 139.379 420.238 116.838 420.238 89.0328C420.238 61.2274 409.211 38.6867 395.607 38.6867C382.003 38.6867 370.975 61.2274 370.975 89.0328C370.975 116.838 382.003 139.379 395.607 139.379Z" fill="#3F3D56"/>
<path d="M393.332 171.441C403.197 112.149 393.432 53.0701 393.332 52.4808L391.413 52.8064C391.512 53.3929 401.222 112.161 391.412 171.121L393.332 171.441Z" fill="#3D9E67"/>
<path d="M373.921 78.2069L373.003 79.9264L395.276 91.861L396.195 90.1415L373.921 78.2069Z" fill="#3D9E67"/>
<path d="M418.784 84.1852L396.513 96.1266L397.432 97.8458L419.703 85.9045L418.784 84.1852Z" fill="#3D9E67"/>
<path d="M502.599 123.184C493.561 118.101 484.119 113.777 474.37 110.255C420.459 90.7133 367.001 98.2448 346.077 126.212C362.361 91.9502 420.465 81.177 479.101 102.431C485.926 104.902 492.604 107.76 499.105 110.991C500.521 114.979 501.688 119.051 502.599 123.184Z" fill="#E6E6E6"/>
<path d="M429.789 68.0505L433.463 65.1067C430.609 64.7913 429.436 66.3507 428.956 67.5849C426.726 66.6574 424.299 67.873 424.299 67.873L431.65 70.5465C431.279 69.5542 430.634 68.6883 429.789 68.0505Z" fill="#3F3D56"/>
</g>
<defs>
<clipPath id="clip0">
<rect width="579" height="417" fill="white"/>
</clipPath>
<clipPath id="clip1">
<rect width="205" height="222" fill="white" transform="translate(304 26)"/>
</clipPath>
</defs>
</svg>
