<svg width="450" height="447" viewBox="0 0 450 447" fill="none" xmlns="http://www.w3.org/2000/svg">
<g clip-path="url(#clip0)">
<path d="M444.041 447H92.4713C90.8915 446.998 89.3769 446.346 88.2597 445.187C87.1426 444.028 86.5143 442.456 86.5125 440.816V216.148C86.5143 214.509 87.1426 212.937 88.2597 211.778C89.3769 210.619 90.8915 209.967 92.4713 209.965H444.041C445.621 209.967 447.136 210.619 448.253 211.778C449.37 212.937 449.998 214.509 450 216.148V440.816C449.998 442.456 449.37 444.028 448.253 445.187C447.136 446.346 445.621 446.998 444.041 447ZM92.4713 211.339C91.2426 211.34 90.0645 211.847 89.1957 212.749C88.3268 213.651 87.8381 214.873 87.8367 216.148V440.816C87.8381 442.092 88.3268 443.314 89.1957 444.216C90.0645 445.117 91.2426 445.624 92.4713 445.626H444.041C445.27 445.624 446.448 445.117 447.317 444.216C448.186 443.314 448.674 442.092 448.676 440.816V216.148C448.674 214.873 448.186 213.651 447.317 212.749C446.448 211.847 445.27 211.34 444.041 211.339H92.4713Z" fill="#3F3D56"/>
<path d="M403.433 402.822H375.626C375.187 402.822 374.766 402.641 374.456 402.319C374.145 401.997 373.971 401.56 373.97 401.105V385.989C373.971 385.534 374.145 385.098 374.456 384.775C374.766 384.453 375.187 384.272 375.626 384.272H395.654C395.917 384.272 396.17 384.38 396.356 384.574C396.542 384.767 396.647 385.029 396.647 385.302C396.647 385.576 396.542 385.838 396.356 386.031C396.17 386.224 395.917 386.333 395.654 386.333H376.95C376.686 386.333 376.434 386.442 376.248 386.635C376.062 386.828 375.957 387.09 375.957 387.364V399.731C375.957 400.004 376.062 400.266 376.248 400.459C376.434 400.652 376.686 400.761 376.95 400.761H402.109C402.372 400.761 402.625 400.652 402.811 400.459C402.997 400.266 403.102 400.004 403.102 399.731V393.179C403.102 392.906 403.207 392.644 403.393 392.451C403.579 392.257 403.832 392.149 404.095 392.149C404.359 392.149 404.611 392.257 404.798 392.451C404.984 392.644 405.089 392.906 405.089 393.179V401.105C405.088 401.56 404.913 401.997 404.603 402.319C404.293 402.641 403.872 402.822 403.433 402.822Z" fill="#3F3D56"/>
<path d="M354.328 251.188H140.473C139.683 251.188 138.925 250.862 138.366 250.283C137.807 249.703 137.493 248.916 137.493 248.096C137.493 247.276 137.807 246.49 138.366 245.91C138.925 245.33 139.683 245.005 140.473 245.005H354.328C355.118 245.005 355.876 245.33 356.435 245.91C356.993 246.49 357.307 247.276 357.307 248.096C357.307 248.916 356.993 249.703 356.435 250.283C355.876 250.862 355.118 251.188 354.328 251.188Z" fill="#CCCCCC"/>
<path d="M354.328 276.609H140.473C139.683 276.609 138.925 276.284 138.366 275.704C137.807 275.124 137.493 274.338 137.493 273.518C137.493 272.698 137.807 271.911 138.366 271.331C138.925 270.752 139.683 270.426 140.473 270.426H354.328C355.118 270.426 355.876 270.752 356.435 271.331C356.993 271.911 357.307 272.698 357.307 273.518C357.307 274.338 356.993 275.124 356.435 275.704C355.876 276.284 355.118 276.609 354.328 276.609Z" fill="#CCCCCC"/>
<path d="M354.328 302.031H140.473C139.683 302.031 138.925 301.705 138.366 301.125C137.807 300.545 137.493 299.759 137.493 298.939C137.493 298.119 137.807 297.332 138.366 296.753C138.925 296.173 139.683 295.847 140.473 295.847H354.328C355.118 295.847 355.876 296.173 356.435 296.753C356.993 297.332 357.307 298.119 357.307 298.939C357.307 299.759 356.993 300.545 356.435 301.125C355.876 301.705 355.118 302.031 354.328 302.031Z" fill="#CCCCCC"/>
<path d="M354.328 327.452H140.473C139.683 327.452 138.925 327.126 138.366 326.546C137.807 325.966 137.493 325.18 137.493 324.36C137.493 323.54 137.807 322.754 138.366 322.174C138.925 321.594 139.683 321.268 140.473 321.268H354.328C355.118 321.268 355.876 321.594 356.435 322.174C356.993 322.754 357.307 323.54 357.307 324.36C357.307 325.18 356.993 325.966 356.435 326.546C355.876 327.126 355.118 327.452 354.328 327.452Z" fill="#CCCCCC"/>
<path d="M354.328 352.873H140.473C139.683 352.873 138.925 352.547 138.366 351.967C137.807 351.388 137.493 350.601 137.493 349.781C137.493 348.961 137.807 348.175 138.366 347.595C138.925 347.015 139.683 346.689 140.473 346.689H354.328C355.118 346.689 355.876 347.015 356.435 347.595C356.993 348.175 357.307 348.961 357.307 349.781C357.307 350.601 356.993 351.388 356.435 351.967C355.876 352.547 355.118 352.873 354.328 352.873Z" fill="#CCCCCC"/>
<path d="M390.081 257.028C394.834 257.028 398.688 253.029 398.688 248.096C398.688 243.163 394.834 239.164 390.081 239.164C385.327 239.164 381.474 243.163 381.474 248.096C381.474 253.029 385.327 257.028 390.081 257.028Z" fill="#3D9E67"/>
<path d="M390.081 282.449C394.834 282.449 398.688 278.45 398.688 273.517C398.688 268.584 394.834 264.586 390.081 264.586C385.327 264.586 381.474 268.584 381.474 273.517C381.474 278.45 385.327 282.449 390.081 282.449Z" fill="#FF6584"/>
<path d="M390.081 307.87C394.834 307.87 398.688 303.871 398.688 298.939C398.688 294.006 394.834 290.007 390.081 290.007C385.327 290.007 381.474 294.006 381.474 298.939C381.474 303.871 385.327 307.87 390.081 307.87Z" fill="#3D9E67"/>
<path d="M390.081 333.292C394.834 333.292 398.688 329.293 398.688 324.36C398.688 319.427 394.834 315.428 390.081 315.428C385.327 315.428 381.474 319.427 381.474 324.36C381.474 329.293 385.327 333.292 390.081 333.292Z" fill="#F2F2F2"/>
<path d="M390.081 358.713C394.834 358.713 398.688 354.714 398.688 349.781C398.688 344.848 394.834 340.849 390.081 340.849C385.327 340.849 381.474 344.848 381.474 349.781C381.474 354.714 385.327 358.713 390.081 358.713Z" fill="#F2F2F2"/>
<path d="M389.86 397.983C389.617 397.984 389.375 397.934 389.149 397.838C388.924 397.741 388.719 397.599 388.547 397.42L382.674 391.326C382.488 391.133 382.384 390.871 382.384 390.598C382.384 390.324 382.488 390.062 382.674 389.869C382.864 389.682 383.115 389.577 383.377 389.577C383.638 389.577 383.89 389.682 384.079 389.869L389.626 395.626C389.689 395.688 389.773 395.723 389.86 395.723C389.947 395.723 390.031 395.688 390.094 395.626L408.553 376.471C408.742 376.284 408.994 376.179 409.255 376.179C409.517 376.179 409.768 376.284 409.958 376.471C410.144 376.665 410.248 376.927 410.248 377.2C410.248 377.473 410.143 377.735 409.957 377.929L391.174 397.42C391.002 397.599 390.797 397.741 390.572 397.838C390.346 397.934 390.104 397.984 389.86 397.983Z" fill="#3D9E67"/>
<path opacity="0.1" d="M389.861 415.189C415.091 415.189 435.545 413.959 435.545 412.441C435.545 410.923 415.091 409.693 389.861 409.693C364.63 409.693 344.176 410.923 344.176 412.441C344.176 413.959 364.63 415.189 389.861 415.189Z" fill="black"/>
<path d="M52.8036 168.962H2.9665C2.17999 168.961 1.42593 168.637 0.869782 168.06C0.313635 167.483 0.000827248 166.7 0 165.884V138.794C0.000827248 137.978 0.313635 137.196 0.869782 136.619C1.42593 136.041 2.17999 135.717 2.9665 135.716H38.8611C39.0951 135.715 39.3269 135.763 39.5432 135.856C39.7596 135.948 39.9562 136.084 40.1219 136.256C40.2875 136.427 40.4189 136.631 40.5086 136.855C40.5982 137.08 40.6444 137.32 40.6444 137.563C40.6444 137.806 40.5982 138.046 40.5086 138.271C40.4189 138.495 40.2875 138.699 40.1219 138.87C39.9562 139.042 39.7596 139.178 39.5432 139.27C39.3269 139.363 39.0951 139.41 38.8611 139.41H5.33966C4.86776 139.411 4.41533 139.605 4.08165 139.952C3.74797 140.298 3.56028 140.767 3.55977 141.257V163.421C3.56028 163.911 3.74797 164.38 4.08165 164.727C4.41533 165.073 4.86776 165.268 5.33966 165.268H50.4304C50.9023 165.268 51.3547 165.073 51.6884 164.727C52.022 164.38 52.2097 163.911 52.2103 163.421V151.68C52.2103 151.19 52.3978 150.72 52.7316 150.374C53.0654 150.028 53.5181 149.833 53.9901 149.833C54.4622 149.833 54.9149 150.028 55.2487 150.374C55.5825 150.72 55.7701 151.19 55.7701 151.68V165.884C55.7692 166.7 55.4564 167.483 54.9003 168.06C54.3441 168.637 53.5901 168.961 52.8036 168.962Z" fill="#3F3D56"/>
<path d="M28.4783 160.29C28.0412 160.291 27.6081 160.202 27.2042 160.029C26.8002 159.855 26.4332 159.601 26.1242 159.28L15.5996 148.359C15.2661 148.012 15.0787 147.543 15.0787 147.053C15.0787 146.563 15.2661 146.093 15.5996 145.747C15.9388 145.411 16.3895 145.224 16.8583 145.224C17.3271 145.224 17.7778 145.411 18.117 145.747L28.0588 156.064C28.1716 156.177 28.3218 156.239 28.478 156.239C28.6343 156.239 28.7845 156.177 28.8972 156.064L61.9794 121.736C62.3185 121.4 62.7692 121.213 63.2379 121.213C63.7065 121.213 64.1572 121.4 64.4963 121.736C64.8299 122.082 65.0173 122.552 65.0172 123.042C65.0171 123.532 64.8295 124.001 64.4957 124.348L30.833 159.28C30.5239 159.601 30.1568 159.855 29.7527 160.029C29.3487 160.202 28.9156 160.291 28.4783 160.29Z" fill="#3D9E67"/>
<path d="M94.539 213.426H154.789C156.252 213.426 157.438 212.196 157.438 210.678V196.25C157.438 194.732 156.252 193.502 154.789 193.502H94.539C93.0763 193.502 91.8906 194.732 91.8906 196.25V210.678C91.8906 212.196 93.0763 213.426 94.539 213.426Z" fill="#2F2E41"/>
<path d="M153.465 192.815H62.0965C61.5748 192.815 61.0583 192.921 60.5763 193.128C60.0943 193.336 59.6564 193.639 59.2875 194.022C58.9186 194.405 58.626 194.859 58.4263 195.359C58.2267 195.86 58.124 196.396 58.124 196.937V262.208C58.124 263.301 58.5425 264.349 59.2875 265.123C60.0325 265.896 61.043 266.33 62.0965 266.33H73.3521C74.4056 266.33 75.416 265.896 76.161 265.123C76.906 264.349 77.3246 263.301 77.3246 262.208V212.739H91.8906V262.895C91.8906 263.988 92.3091 265.037 93.0541 265.81C93.7991 266.583 94.8096 267.017 95.8631 267.017H107.119C108.172 267.017 109.183 266.583 109.928 265.81C110.673 265.037 111.091 263.988 111.091 262.895V212.739H153.465C154.519 212.739 155.529 212.305 156.274 211.532C157.019 210.759 157.437 209.71 157.438 208.617V196.937C157.438 196.396 157.335 195.86 157.135 195.359C156.936 194.859 156.643 194.405 156.274 194.022C155.905 193.639 155.467 193.336 154.985 193.128C154.503 192.921 153.987 192.815 153.465 192.815Z" fill="#2F2E41"/>
<path d="M176.399 213.811L89.565 211.914C88.9753 211.901 88.3958 211.752 87.8686 211.478C87.3413 211.204 86.8795 210.811 86.5167 210.329C86.1538 209.846 85.8991 209.286 85.771 208.689C85.6428 208.091 85.6445 207.472 85.7758 206.875L106.918 110.824C107.118 109.913 107.61 109.101 108.314 108.518C109.018 107.936 109.891 107.619 110.791 107.619H133.527C141.002 107.619 148.248 110.289 154.05 115.18C159.851 120.071 163.853 126.886 165.383 134.478L180.371 208.846C180.494 209.453 180.482 210.081 180.338 210.683C180.194 211.285 179.921 211.846 179.539 212.323C179.158 212.8 178.677 213.182 178.133 213.44C177.59 213.697 176.997 213.824 176.399 213.811Z" fill="#2F2E41"/>
<path d="M122.625 99.0554C142.195 99.0554 158.059 82.5925 158.059 62.2846C158.059 41.9766 142.195 25.5137 122.625 25.5137C103.055 25.5137 87.1901 41.9766 87.1901 62.2846C87.1901 82.5925 103.055 99.0554 122.625 99.0554Z" fill="#3D9E67"/>
<path d="M106.549 42.4855C102.413 41.4732 97.9478 40.1112 94.9979 36.7321C92.4866 33.8556 91.3088 29.4163 93.5341 26.006C95.5661 22.892 99.5741 21.7494 102.948 21.1655C106.869 20.4867 110.898 20.3876 114.578 18.6559C116.384 17.808 117.961 16.51 119.167 14.8773C120.287 13.2453 121.259 11.5092 122.071 9.69133C122.84 7.91957 123.868 6.28142 125.118 4.83457C126.54 3.38997 128.373 2.46104 130.345 2.18637C134.784 1.48626 138.998 3.61506 142.491 6.25869C145.873 8.86906 148.942 11.8908 151.631 15.2591C157.738 22.8107 161.941 31.8179 163.864 41.4718C164.122 42.77 166.037 42.2206 165.779 40.9239C163.94 31.7878 160.121 23.2062 154.611 15.83C151.882 12.1521 148.747 8.81859 145.27 5.89749C141.671 2.88871 137.516 0.266532 132.782 0.0180573C130.593 -0.114272 128.407 0.336023 126.433 1.32622C124.619 2.31858 123.092 3.79427 122.009 5.60169C119.779 9.11208 118.703 13.6483 115.104 16.0228C111.459 18.4281 106.896 18.4518 102.761 19.121C99.083 19.7163 94.9886 20.9734 92.499 24.0383C89.745 27.4284 89.8486 32.0482 91.9056 35.7872C94.1911 39.9415 98.4374 42.2087 102.702 43.5603C103.797 43.9075 104.907 44.2003 106.021 44.473C107.264 44.7773 107.795 42.7903 106.549 42.4855V42.4855Z" fill="#2F2E41"/>
<path d="M126.453 74.5617C124.264 74.498 121.539 74.4188 119.441 72.8286C118.817 72.3355 118.303 71.7064 117.937 70.9856C117.571 70.2648 117.362 69.4697 117.323 68.656C117.285 68.0778 117.377 67.4984 117.59 66.963C117.804 66.4276 118.134 65.9507 118.555 65.5696C119.65 64.6081 121.251 64.382 122.976 64.9094L121.189 51.356L122.501 51.1695L124.602 67.1027L123.506 66.5814C122.236 65.9762 120.493 65.6695 119.409 66.6189C119.143 66.8672 118.936 67.1758 118.804 67.5207C118.671 67.8656 118.617 68.2376 118.646 68.6076C118.678 69.2133 118.836 69.8046 119.108 70.3415C119.38 70.8784 119.76 71.3481 120.223 71.7189C121.855 72.9561 124.027 73.1165 126.49 73.1876L126.453 74.5617Z" fill="#2F2E41"/>
<path d="M114.701 52.5248H107.569V53.899H114.701V52.5248Z" fill="#2F2E41"/>
<path d="M137.212 52.5248H130.08V53.899H137.212V52.5248Z" fill="#2F2E41"/>
<path d="M54.8462 177.86C54.0197 177.861 53.2103 177.615 52.5148 177.151C51.8193 176.688 51.2669 176.026 50.9235 175.246L46.8721 166.018C46.6378 165.484 46.5071 164.908 46.4875 164.322C46.4678 163.735 46.5596 163.151 46.7576 162.602C46.9557 162.053 47.256 161.549 47.6415 161.12C48.027 160.691 48.4902 160.346 49.0045 160.103L123.122 125.063C124.161 124.574 125.345 124.532 126.413 124.947C127.482 125.361 128.348 126.199 128.823 127.276L132.874 136.504C133.346 137.582 133.386 138.811 132.986 139.92C132.587 141.029 131.78 141.928 130.742 142.42L56.624 177.459C56.066 177.723 55.4597 177.86 54.8462 177.86Z" fill="#3D9E67"/>
</g>
<defs>
<clipPath id="clip0">
<rect width="450" height="447" fill="white"/>
</clipPath>
</defs>
</svg>
