<svg width="206" height="168" viewBox="0 0 206 168" fill="none" xmlns="http://www.w3.org/2000/svg">
<g clip-path="url(#clip0)">
<path opacity="0.1" d="M120.812 28.3912C107.777 27.9263 95.3609 23.6104 83.5065 18.8875C71.6521 14.1646 59.9105 8.93138 47.188 6.42944C39.0051 4.82001 29.6461 4.59275 23.0543 9.09253C16.7081 13.4312 14.6579 20.8998 13.5562 27.8375C12.7265 33.0562 12.2391 38.5477 14.5129 43.4338C16.0898 46.8262 18.8913 49.6773 20.8268 52.9375C27.5676 64.2427 22.8045 78.1842 15.4997 89.2229C12.0759 94.4024 8.09829 99.3464 5.45592 104.854C2.81356 110.362 1.58904 116.682 3.90112 122.306C6.19506 127.884 11.659 132.066 17.5762 135.01C29.5977 140.991 43.7582 142.702 57.5762 143.671C88.1548 145.817 118.894 144.888 149.554 143.958C160.9 143.613 172.296 143.264 183.457 141.464C189.656 140.464 196.055 138.88 200.556 135.049C206.268 130.188 207.684 121.955 203.857 115.86C197.434 105.635 179.689 103.096 175.194 92.1215C172.725 86.0826 175.262 79.3556 178.851 73.7526C186.553 61.7366 199.46 51.1938 200.141 37.4589C200.608 28.0234 194.401 18.5776 184.807 14.1129C174.751 9.4169 160.802 10.0119 153.386 17.7574C145.745 25.7384 132.32 28.8002 120.812 28.3912Z" fill="#3D9E67"/>
<path d="M87.6996 142.658L18.7644 142.313L11.9148 125.833L36.1352 124.029L31.9138 105.96L79.8188 99.5901L33.9459 83.2315L37.9981 82.2439L111.761 94.5883L107.699 122.787L101.892 138.284L87.6996 142.658Z" fill="#3D9E67"/>
<path d="M19.8218 135.411C19.8218 135.411 24.0512 134.717 26.5888 137.782C26.5888 137.782 24.7279 139.287 20.724 137.204L19.8218 135.411Z" fill="#3D9E67"/>
<path d="M19.3787 135.343C19.3787 135.343 16.68 138.749 18.0092 142.543C18.0092 142.543 20.2085 141.64 20.4482 137.041L19.3787 135.343Z" fill="#3D9E67"/>
<path d="M16.9539 129.742C16.9539 129.742 18.6456 126.558 25.4127 131.014C25.4127 131.014 24.5104 133.155 21.5216 132.981C18.5328 132.808 17.7433 131.419 16.9539 129.742Z" fill="#3D9E67"/>
<path d="M16.5168 129.512C16.5168 129.512 13.0064 129.099 12.6661 137.342C12.6661 137.342 14.8915 137.816 16.4725 135.208C18.0535 132.601 17.405 131.138 16.5168 129.512Z" fill="#3D9E67"/>
<path d="M14.4726 122.936C14.4726 122.936 16.4463 117.325 23.6081 121.316C23.6081 121.316 21.9727 126.465 15.2057 124.845L14.4726 122.936Z" fill="#3D9E67"/>
<path d="M12.2733 114.548C12.2733 114.548 15.9952 108.879 22.5931 114.135C22.5931 114.135 20.281 119.457 12.8372 116.564L12.2733 114.548Z" fill="#3D9E67"/>
<path d="M11.4838 106.565C11.4838 106.565 15.826 101.357 22.3594 106.565C22.3594 106.565 18.2428 111.135 11.4838 107.895V106.565Z" fill="#3D9E67"/>
<path d="M10.8071 98.8112C10.8071 98.8112 15.2057 93.3735 21.4652 98.522C21.4652 98.522 16.5027 103.323 10.8071 100.084V98.8112Z" fill="#3D9E67"/>
<path d="M11.2018 91.9273C11.2018 91.9273 15.834 84.9276 21.6908 89.6712C21.6908 89.6712 16.7283 95.6875 11.2018 93.2578V91.9273Z" fill="#3D9E67"/>
<path d="M12.2733 83.8864C12.2733 83.8864 17.1794 76.9446 22.875 82.2666C22.875 82.2666 17.0666 88.2829 12.2733 85.159V83.8864Z" fill="#3D9E67"/>
<path d="M13.9087 76.6987C13.9087 76.6987 19.717 70.1743 24.7843 72.7733C24.7843 72.7733 18.7322 79.7027 13.6549 78.4301L13.9087 76.6987Z" fill="#3D9E67"/>
<path d="M15.9388 69.8849C15.9388 69.8849 22.6414 61.8936 26.5405 64.5629C26.5405 64.5629 21.6022 70.7609 15.4635 71.3807L15.9388 69.8849Z" fill="#3D9E67"/>
<path d="M18.8692 61.9825C18.8692 61.9825 24.736 55.458 29.0218 57.0777C29.0218 57.0777 24.0029 63.846 18.0817 64.0195L18.8692 61.9825Z" fill="#3D9E67"/>
<path d="M21.5216 54.5903C21.5216 54.5903 28.0067 48.3427 30.8263 49.4418C30.8263 49.4418 26.1457 56.3836 21.2396 55.9787L21.5216 54.5903Z" fill="#3D9E67"/>
<path d="M24.1157 47.7642C24.1157 47.7642 29.6985 40.2997 32.7456 40.8782C32.7456 40.8782 29.3601 47.5328 24.1157 48.5224V47.7642Z" fill="#3D9E67"/>
<path d="M26.9312 38.5601C26.9312 38.5601 31.8655 32.8393 34.532 32.8517C34.532 32.8517 30.637 40.496 26.7278 40.4257L26.9312 38.5601Z" fill="#3D9E67"/>
<path d="M28.5988 32.4323L33.366 20.5155C33.366 20.5155 33.6036 31.2877 27.9926 34.6429L28.5988 32.4323Z" fill="#3D9E67"/>
<path d="M30.5342 19.2903C30.5342 19.2903 31.3237 9.33832 30.8162 8.52844C30.8162 8.52844 34.2239 16.8028 30.502 23.6868L30.5342 19.2903Z" fill="#3D9E67"/>
<path d="M14.2873 122.804C14.2873 122.804 9.34496 119.661 6.14471 127.349C6.14471 127.349 10.5433 130.345 14.8694 124.765L14.2873 122.804Z" fill="#3D9E67"/>
<path d="M12.1142 114.228C12.1142 114.228 6.05207 111.391 3.11163 119.418C3.11163 119.418 7.79418 122.723 12.666 116.257L12.1142 114.228Z" fill="#3D9E67"/>
<path d="M11.2018 107.042C11.2018 107.042 6.85965 101.834 0.326233 107.042C0.326233 107.042 4.44285 111.612 11.2018 108.373V107.042Z" fill="#3D9E67"/>
<path d="M10.6581 98.8112C10.6581 98.8112 6.25951 93.3735 0 98.522C0 98.522 4.9625 103.323 10.6581 100.084V98.8112Z" fill="#3D9E67"/>
<path d="M11.2019 92.1256C11.2019 92.1256 8.11641 84.2851 1.40979 87.6568C1.40979 87.6568 5.03499 94.6089 10.928 93.4272L11.2019 92.1256Z" fill="#3D9E67"/>
<path d="M12.662 83.8471C12.662 83.8471 9.59467 75.8702 2.7934 79.5684C2.7934 79.5684 6.95835 86.88 12.3599 85.0784L12.662 83.8471Z" fill="#3D9E67"/>
<path d="M14.5632 76.7379C14.5632 76.7379 13.3548 67.9925 7.71564 67.2095C7.71564 67.2095 8.91195 76.4322 13.804 78.3143L14.5632 76.7379Z" fill="#3D9E67"/>
<path d="M16.0818 69.9015C16.0818 69.9015 15.6105 59.3648 10.9481 58.9971C10.9481 58.9971 11.1052 66.9946 15.5562 71.3932L16.0818 69.9015Z" fill="#3D9E67"/>
<path d="M19.3525 61.687C19.3525 61.687 17.9628 52.9251 13.5119 51.8549C13.5119 51.8549 14.0637 60.34 18.9114 63.8377L19.3525 61.687Z" fill="#3D9E67"/>
<path d="M22.0492 54.6626C22.0492 54.6626 22.0029 45.5349 19.284 44.1941C19.284 44.1941 17.5983 52.4581 21.2618 55.8278L22.0492 54.6626Z" fill="#3D9E67"/>
<path d="M24.3231 47.6608C24.3231 47.6608 23.9424 38.2625 21.1268 36.9382C21.1268 36.9382 20.1641 44.3759 23.9021 48.2765L24.3231 47.6608Z" fill="#3D9E67"/>
<path d="M27.3239 39.3101C27.3239 39.3101 27.3078 31.6659 25.2978 29.8726C25.2978 29.8726 23.2999 38.2461 26.2746 40.8472L27.3239 39.3101Z" fill="#3D9E67"/>
<path d="M28.3631 32.0563L26.4075 19.3337C26.4075 19.3337 23.7511 29.7588 28.4558 34.3537L28.3631 32.0563Z" fill="#3D9E67"/>
<path d="M28.7438 19.4102C28.7438 19.4102 23.7249 10.8569 23.8276 9.90649C23.8276 9.90649 24.3613 18.8709 30.6752 23.3356L28.7438 19.4102Z" fill="#3D9E67"/>
<path d="M29.3319 16.8834C29.3319 16.8834 24.595 4.73525 22.4521 3.75183C22.4521 3.75183 29.2191 7.28058 29.7267 16.5363L29.3319 16.8834Z" fill="#3D9E67"/>
<path d="M26.7036 40.4981L26.3794 40.3968C30.3772 27.0235 31.3741 18.4971 29.1889 16.3587L29.4205 16.1067C31.7386 18.3628 30.7981 26.7962 26.7036 40.4981Z" fill="#444053"/>
<path d="M15.6951 71.8105L15.2158 71.6349C15.6407 70.4097 16.0979 69.166 16.5772 67.9408C20.7502 57.2719 24.3029 47.3468 26.5808 39.7274L26.9977 39.5208C24.7158 47.1547 21.2255 57.46 17.0485 68.1433C16.5712 69.3457 16.116 70.5833 15.6951 71.8105Z" fill="#444053"/>
<path d="M25.7812 145.418C25.7168 145.346 19.2377 137.861 14.7203 125.083C12.0734 117.602 10.6003 109.737 10.356 101.782C10.0458 91.8385 12.08 80.7357 15.5642 70.6494L15.9428 71.1039C8.12045 93.7412 11.2281 113.139 15.3507 124.82C19.8198 137.483 26.2263 144.885 26.2887 144.96L25.7812 145.418Z" fill="#444053"/>
<path d="M127.029 129.527C127.029 129.527 122.463 135.243 126.089 143.886L89.6351 160.104L86.1368 160.856L84.5256 153.625L85.6031 144.499V139.512L127.029 129.527Z" fill="#D5D6DB"/>
<path d="M11.9148 125.833L62.3695 116.397L129.224 127.322L87.6996 142.658L11.9148 125.833Z" fill="#3D9E67"/>
<path d="M11.9148 125.833L62.3695 116.397L129.224 127.322L87.6996 142.658L11.9148 125.833Z" fill="#3D9E67"/>
<path d="M11.9148 125.831C11.9148 125.831 7.19604 135.002 12.6338 143.472L87.454 160.104C87.454 160.104 82.8097 152.798 87.6936 142.658L11.9148 125.831Z" fill="#3D9E67"/>
<path opacity="0.1" d="M11.9148 125.831C11.9148 125.831 7.19604 135.002 12.6338 143.472L87.454 160.104C87.454 160.104 82.8097 152.798 87.6936 142.658L11.9148 125.831Z" fill="black"/>
<path opacity="0.1" d="M14.1444 129.01C14.1444 129.01 11.4476 135.721 14.1444 140.063V129.01Z" fill="black"/>
<path d="M87.454 160.104L129.224 141.819C129.224 141.819 131.561 142.336 130.05 144.092C128.54 145.848 88.2596 161.86 88.2596 161.86L12.6339 143.472L87.454 160.104Z" fill="#3D9E67"/>
<path opacity="0.1" d="M87.454 160.104L129.224 141.819C129.224 141.819 131.561 142.336 130.05 144.092C128.54 145.848 88.2596 161.86 88.2596 161.86L12.6339 143.472L87.454 160.104Z" fill="black"/>
<path opacity="0.1" d="M84.0302 144.505C84.0302 144.505 80.0022 149.464 84.0302 156.901V144.505Z" fill="black"/>
<path opacity="0.1" d="M103.531 144.421L85.4637 150.605L85.5275 150.801L103.595 144.617L103.531 144.421Z" fill="black"/>
<path opacity="0.1" d="M107.15 143.806L85.458 152.268L85.5296 152.461L107.222 143.999L107.15 143.806Z" fill="black"/>
<path opacity="0.1" d="M110.473 143.776L85.579 154.229L85.6553 154.42L110.55 143.968L110.473 143.776Z" fill="black"/>
<path opacity="0.1" d="M114.087 142.881L85.8696 155.957L85.9525 156.146L114.17 143.07L114.087 142.881Z" fill="black"/>
<path opacity="0.1" d="M117.124 142.886L86.093 156.799L86.1737 156.989L117.204 143.075L117.124 142.886Z" fill="black"/>
<path opacity="0.1" d="M123.765 141.729L86.5609 158.212L86.6408 158.402L123.845 141.918L123.765 141.729Z" fill="black"/>
<path opacity="0.3" d="M30.6591 126.841L66.1055 119.197L87.6996 123.432L58.6537 133.039L30.6591 126.841Z" fill="white"/>
<path d="M129.224 127.322C129.224 127.322 131.057 128.08 129.982 129.252C128.906 130.423 87.6936 142.658 87.6936 142.658L129.224 127.322Z" fill="#3D9E67"/>
<path d="M147.026 109.656C147.026 109.656 142.462 115.37 146.088 124.015L109.634 140.233L106.136 140.989L104.525 133.758L105.618 124.634V119.641L147.026 109.656Z" fill="#D5D6DB"/>
<path d="M31.9139 105.96L82.3666 96.5262L149.223 107.451L107.699 122.787L31.9139 105.96Z" fill="#3A3768"/>
<path d="M31.9058 105.96C31.9058 105.96 27.185 115.131 32.6228 123.601L107.443 140.233C107.443 140.233 102.801 132.921 107.691 122.785L31.9058 105.96Z" fill="#3A3768"/>
<path opacity="0.1" d="M31.9058 105.96C31.9058 105.96 27.185 115.131 32.6228 123.601L107.443 140.233C107.443 140.233 102.801 132.921 107.691 122.785L84.0301 117.531L31.9058 105.96Z" fill="black"/>
<path opacity="0.1" d="M34.1413 109.139C34.1413 109.139 31.4466 115.848 34.1413 120.192V109.139Z" fill="black"/>
<path d="M107.451 140.233L149.223 121.949C149.223 121.949 151.558 122.465 150.047 124.221C148.537 125.977 108.257 141.989 108.257 141.989L32.6309 123.601L107.451 140.233Z" fill="#3A3768"/>
<path opacity="0.1" d="M107.451 140.233L149.223 121.949C149.223 121.949 151.558 122.465 150.047 124.221C148.537 125.977 108.257 141.989 108.257 141.989L32.6309 123.601L107.451 140.233Z" fill="black"/>
<path opacity="0.1" d="M104.027 124.634C104.027 124.634 99.9991 129.593 104.027 137.031V124.634Z" fill="black"/>
<path opacity="0.1" d="M123.53 124.553L105.462 130.736L105.526 130.932L123.593 124.749L123.53 124.553Z" fill="black"/>
<path opacity="0.1" d="M127.151 123.936L105.459 132.398L105.531 132.591L127.223 124.129L127.151 123.936Z" fill="black"/>
<path opacity="0.1" d="M130.472 123.904L105.577 134.357L105.654 134.548L130.548 124.095L130.472 123.904Z" fill="black"/>
<path opacity="0.1" d="M134.088 123.009L105.87 136.085L105.953 136.273L134.171 123.198L134.088 123.009Z" fill="black"/>
<path opacity="0.1" d="M137.121 123.011L106.091 136.925L106.171 137.114L137.202 123.2L137.121 123.011Z" fill="black"/>
<path opacity="0.1" d="M143.764 121.854L106.56 138.338L106.64 138.527L143.844 122.044L143.764 121.854Z" fill="black"/>
<path opacity="0.45" d="M50.6581 106.97L86.1046 99.3257L107.699 103.561L78.6528 113.168L50.6581 106.97Z" fill="white"/>
<path d="M149.223 107.451C149.223 107.451 151.054 108.21 149.981 109.379C148.907 110.548 107.699 122.785 107.699 122.785L149.223 107.451Z" fill="#3A3768"/>
<path d="M148.919 86.9235C148.919 86.9235 144.353 97.1854 147.979 105.827L111.525 117.5L108.035 118.259L106.424 111.028L107.501 101.902V96.9085L148.919 86.9235Z" fill="#D5D6DB"/>
<path d="M33.813 83.2294L84.2678 73.7939L151.124 84.719L109.598 100.055L33.813 83.2294Z" fill="#3D9E67"/>
<path d="M33.813 83.2273C33.813 83.2273 29.0862 92.3983 34.524 100.869L109.344 117.5C109.344 117.5 104.7 110.189 109.59 100.055L33.813 83.2273Z" fill="#3D9E67"/>
<path opacity="0.1" d="M33.813 83.2273C33.813 83.2273 29.0862 92.3983 34.524 100.869L109.344 117.5C109.344 117.5 104.7 110.189 109.59 100.055L33.813 83.2273Z" fill="black"/>
<path opacity="0.1" d="M36.0425 86.4069C36.0425 86.4069 33.3458 93.1173 36.0425 97.46V86.4069Z" fill="black"/>
<path d="M109.352 117.5L151.123 103.761C151.123 103.761 153.459 104.278 151.948 106.034C150.438 107.79 110.158 119.257 110.158 119.257L34.532 100.869L109.352 117.5Z" fill="#3D9E67"/>
<path opacity="0.1" d="M109.352 117.5L151.123 103.761C151.123 103.761 153.459 104.278 151.948 106.034C150.438 107.79 110.158 119.257 110.158 119.257L34.532 100.869L109.352 117.5Z" fill="black"/>
<path opacity="0.1" d="M105.928 101.902C105.928 101.902 101.9 106.86 105.928 114.298V101.902Z" fill="black"/>
<path opacity="0.1" d="M125.432 101.82L107.364 108.003L107.428 108.199L125.495 102.016L125.432 101.82Z" fill="black"/>
<path opacity="0.1" d="M129.051 101.205L107.359 109.666L107.431 109.859L129.123 101.398L129.051 101.205Z" fill="black"/>
<path opacity="0.1" d="M132.37 101.173L107.476 111.626L107.552 111.817L132.446 101.364L132.37 101.173Z" fill="black"/>
<path opacity="0.1" d="M135.989 100.277L107.771 113.353L107.854 113.541L136.072 100.465L135.989 100.277Z" fill="black"/>
<path opacity="0.1" d="M139.024 100.28L107.993 114.194L108.074 114.383L139.104 100.47L139.024 100.28Z" fill="black"/>
<path opacity="0.1" d="M145.666 99.1246L108.462 115.608L108.542 115.798L145.746 99.3143L145.666 99.1246Z" fill="black"/>
<path opacity="0.3" d="M52.5574 84.2376L88.0038 76.5934L109.598 80.8287L80.552 90.4357L52.5574 84.2376Z" fill="white"/>
<path d="M151.122 84.719C151.122 84.719 152.955 85.4772 151.88 86.6487C150.804 87.8201 109.598 100.055 109.598 100.055L151.122 84.719Z" fill="#3D9E67"/>
<path d="M62.5186 22.0031C62.5186 22.0031 54.8654 21.53 55.7596 27.038C55.7596 27.038 55.5804 28.0111 56.4404 28.4532C56.4404 28.4532 56.4545 28.04 57.2258 28.1825C57.5011 28.231 57.7811 28.2449 58.0596 28.2239C58.4351 28.1975 58.792 28.0467 59.0767 27.7941C59.0767 27.7941 61.2296 26.8809 62.0675 23.2696C62.0675 23.2696 62.6878 22.4824 62.6717 22.2799L61.3747 22.846C61.3747 22.846 61.8157 23.8026 61.4693 24.598C61.4693 24.598 61.427 22.8811 61.1773 22.9204C61.1269 22.9204 60.5066 23.253 60.5066 23.253C60.5066 23.253 61.2659 24.9203 60.6919 26.131C60.6919 26.131 60.9094 24.0774 60.269 23.3729L59.3586 23.9183C59.3586 23.9183 60.2468 25.6393 59.6446 27.0442C59.6446 27.0442 59.7997 24.8893 59.1673 24.0505L58.3416 24.7116C58.3416 24.7116 59.1774 26.4078 58.6678 27.5731C58.6678 27.5731 58.6014 25.0649 58.1643 24.8749C58.1643 24.8749 57.4413 25.5277 57.3326 25.7963C57.3326 25.7963 57.9045 27.0359 57.5481 27.6784C57.5481 27.6784 57.3326 26.007 57.1453 25.9988C57.1453 25.9988 56.4263 27.1061 56.3517 27.8582C56.3866 27.1571 56.5997 26.4775 56.97 25.8872C56.5557 25.9676 56.1733 26.1709 55.8704 26.4719C55.8704 26.4719 55.9812 25.6889 57.1493 25.6207C57.1493 25.6207 57.7434 24.7798 57.9025 24.7302C57.9025 24.7302 56.7404 24.629 56.0376 24.9492C56.0376 24.9492 56.6579 24.2117 58.114 24.536L58.9196 23.8542C58.9196 23.8542 57.393 23.6476 56.7445 23.877C56.7445 23.877 57.4917 23.2241 59.1391 23.6993L60.0273 23.1559C60.0273 23.1559 58.7242 22.8687 57.9488 22.9721C57.9488 22.9721 58.7665 22.5196 60.2871 23.0092L60.9195 22.7179C60.9195 22.7179 59.9669 22.5258 59.6869 22.4948C59.407 22.4638 59.3929 22.3853 59.3929 22.3853C59.9975 22.2834 60.6178 22.3549 61.1853 22.5919C61.1853 22.5919 62.5448 22.0899 62.5186 22.0031Z" fill="#3D9E67"/>
<path opacity="0.1" d="M170.187 44.6424C170.187 44.6424 162.534 44.1693 163.428 49.6772C163.428 49.6772 163.249 50.6503 164.109 51.0925C164.109 51.0925 164.123 50.6793 164.894 50.8218C165.17 50.8692 165.449 50.8831 165.728 50.8631C166.1 50.835 166.453 50.6843 166.735 50.4334C166.735 50.4334 168.89 49.5202 169.726 45.9088C169.726 45.9088 170.346 45.1217 170.33 44.9192L169.037 45.4853C169.037 45.4853 169.478 46.4419 169.132 47.2373C169.132 47.2373 169.089 45.5204 168.842 45.5597C168.791 45.5597 168.169 45.8923 168.169 45.8923C168.169 45.8923 168.928 47.5596 168.356 48.7703C168.356 48.7703 168.574 46.7167 167.931 46.0121L167.021 46.5576C167.021 46.5576 167.909 48.2786 167.307 49.6834C167.307 49.6834 167.462 47.5286 166.83 46.6898L166.006 47.3509C166.006 47.3509 166.84 49.0471 166.33 50.2123C166.33 50.2123 166.264 47.7042 165.827 47.5141C165.827 47.5141 165.106 48.167 164.995 48.4356C164.995 48.4356 165.567 49.6752 165.212 50.3177C165.212 50.3177 164.995 48.6463 164.81 48.638C164.81 48.638 164.091 49.7454 164.016 50.4975C164.051 49.7961 164.265 49.1164 164.636 48.5265C164.222 48.6071 163.839 48.8103 163.535 49.1112C163.535 49.1112 163.648 48.3281 164.814 48.26C164.814 48.26 165.408 47.4191 165.567 47.3674C165.567 47.3674 164.407 47.2683 163.702 47.5885C163.702 47.5885 164.322 46.8509 165.778 47.1753L166.584 46.4935C166.584 46.4935 165.055 46.2869 164.409 46.5162C164.409 46.5162 165.154 45.8634 166.803 46.3386L167.69 45.7952C167.69 45.7952 166.387 45.508 165.611 45.6113C165.611 45.6113 166.429 45.1589 167.949 45.6485L168.584 45.3572C168.584 45.3572 167.629 45.1651 167.349 45.1341C167.069 45.1031 167.055 45.0246 167.055 45.0246C167.66 44.9214 168.281 44.9929 168.848 45.2312C168.848 45.2312 170.211 44.7291 170.187 44.6424Z" fill="#3D9E67"/>
<path opacity="0.1" d="M75.4082 56.0303C75.4082 56.0303 72.073 48.9376 67.8275 52.4333C67.8275 52.4333 66.9112 52.7474 66.9555 53.7329C66.9555 53.7329 67.3079 53.5449 67.5597 54.3052C67.6537 54.5739 67.7781 54.8305 67.9302 55.0696C68.1363 55.3937 68.4396 55.6403 68.7943 55.772C68.7943 55.772 70.6209 57.2554 74.1031 56.2431C74.1031 56.2431 75.0759 56.4146 75.235 56.2947L74.1233 55.4125C74.1233 55.4125 73.5191 56.2741 72.6772 56.3505C72.6772 56.3505 74.1193 55.4766 73.9642 55.2741C73.932 55.2328 73.36 54.834 73.36 54.834C73.36 54.834 72.3107 56.3278 71.0016 56.4042C71.0016 56.4042 72.8545 55.5985 73.1405 54.6791L72.2342 54.1295C72.2342 54.1295 71.201 55.7658 69.7126 55.9104C69.7126 55.9104 71.6219 54.9993 72.0267 54.0242L71.064 53.611C71.064 53.611 70.0268 55.1853 68.7862 55.2989C68.7862 55.2989 70.8888 54.0159 70.8364 53.5304C70.8364 53.5304 69.9281 53.204 69.6462 53.235C69.6462 53.235 68.8768 54.3485 68.1518 54.3485C68.1518 54.3485 69.4669 53.3383 69.3864 53.175C69.3864 53.175 68.0934 53.0717 67.4126 53.3816C68.0261 53.0689 68.7086 52.9264 69.3924 52.9684C69.1211 52.6366 68.7614 52.3932 68.3572 52.2681C68.3572 52.2681 69.0782 51.9871 69.7046 52.9974C69.7046 52.9974 70.7116 53.1193 70.8304 53.237C70.8304 53.237 70.3491 52.1503 69.7348 51.6772C69.7348 51.6772 70.6653 51.8693 71.0902 53.33L72.067 53.7267C72.067 53.7267 71.5051 52.2557 70.9875 51.7908C70.9875 51.7908 71.9059 52.14 72.3067 53.8568L73.2009 54.3857C73.2009 54.3857 72.8122 53.0779 72.3449 52.4354C72.3449 52.4354 73.1284 52.9478 73.4526 54.5469L74.0105 54.9725C74.0105 54.9725 73.7084 54.0242 73.6077 53.7597C73.507 53.4953 73.5574 53.4416 73.5574 53.4416C73.9405 53.9321 74.1831 54.5222 74.2582 55.146C74.2582 55.146 75.3357 56.0923 75.4082 56.0303Z" fill="#3D9E67"/>
<path opacity="0.1" d="M152.702 34.6223C152.702 34.6223 149.368 27.5297 145.121 31.0254C145.121 31.0254 144.206 31.3394 144.249 32.3249C144.249 32.3249 144.603 32.139 144.853 32.8972C144.947 33.1671 145.072 33.4244 145.226 33.6637C145.431 33.9872 145.734 34.2331 146.088 34.3641C146.088 34.3641 147.916 35.8475 151.396 34.8372C151.396 34.8372 152.369 35.0066 152.53 34.8868L151.425 34.0025C151.425 34.0025 150.82 34.8661 149.981 34.9426C149.981 34.9426 151.421 34.0666 151.266 33.8641C151.233 33.8228 150.661 33.424 150.661 33.424C150.661 33.424 149.614 34.9178 148.303 34.9942C148.303 34.9942 150.158 34.1885 150.444 33.2711L149.523 32.7257C149.523 32.7257 148.492 34.3599 147.002 34.5066C147.002 34.5066 148.911 33.5934 149.318 32.6183L148.353 32.2051C148.353 32.2051 147.316 33.7815 146.077 33.893C146.077 33.893 148.178 32.61 148.126 32.1266C148.126 32.1266 147.219 31.7981 146.937 31.8311C146.937 31.8311 146.168 32.9426 145.441 32.9426C145.441 32.9426 146.758 31.9324 146.678 31.7692C146.678 31.7692 145.385 31.6659 144.702 31.9758C145.315 31.6629 145.998 31.5204 146.682 31.5626C146.411 31.2305 146.052 30.987 145.648 30.8622C145.648 30.8622 146.369 30.5812 146.996 31.5915C146.996 31.5915 148.003 31.7154 148.122 31.8332C148.122 31.8332 147.64 30.7444 147.024 30.2713C147.024 30.2713 147.955 30.4655 148.379 31.9344L149.358 32.3311C149.358 32.3311 148.796 30.858 148.279 30.3932C148.279 30.3932 149.197 30.7423 149.596 32.4592L150.492 32.9881C150.492 32.9881 150.101 31.6824 149.634 31.0378C149.634 31.0378 150.42 31.5502 150.742 33.1492L151.3 33.5748C151.3 33.5748 151 32.6265 150.897 32.3621C150.794 32.0976 150.847 32.046 150.847 32.046C151.229 32.537 151.471 33.127 151.545 33.7505C151.545 33.7505 152.639 34.6884 152.702 34.6223Z" fill="#3D9E67"/>
<path opacity="0.1" d="M163.354 69.7052C163.354 69.7052 160.02 62.6105 155.767 66.1062C155.767 66.1062 154.852 66.4203 154.895 67.4057C154.895 67.4057 155.249 67.2198 155.499 67.978C155.592 68.2478 155.717 68.5051 155.87 68.7445C156.075 69.068 156.377 69.314 156.732 69.4449C156.732 69.4449 158.56 70.9304 162.042 69.918C162.042 69.918 163.013 70.0895 163.174 69.9676L162.063 69.0854C162.063 69.0854 161.458 69.949 160.617 70.0255C160.617 70.0255 162.057 69.1495 161.901 68.947C161.869 68.9057 161.297 68.5069 161.297 68.5069C161.297 68.5069 160.25 70.0007 158.939 70.0792C158.939 70.0792 160.794 69.2714 161.08 68.354L160.171 67.8045C160.171 67.8045 159.14 69.4408 157.65 69.5854C157.65 69.5854 159.559 68.6722 159.966 67.6971L159.001 67.2839C159.001 67.2839 157.964 68.8582 156.725 68.9718C156.725 68.9718 158.828 67.6888 158.776 67.2033C158.776 67.2033 157.867 66.8748 157.585 66.9078C157.585 66.9078 156.816 68.0194 156.089 68.0194C156.089 68.0194 157.406 67.0091 157.326 66.8459C157.326 66.8459 156.033 66.7426 155.35 67.0525C155.964 66.7398 156.647 66.5974 157.332 66.6393C157.061 66.3067 156.701 66.0631 156.296 65.9389C156.296 65.9389 157.018 65.6558 157.644 66.6682C157.644 66.6682 158.651 66.7901 158.77 66.9078C158.77 66.9078 158.288 65.8211 157.674 65.3459C157.674 65.3459 158.605 65.5401 159.029 67.0091L160.006 67.4057C160.006 67.4057 159.444 65.9327 158.927 65.4699C158.927 65.4699 159.845 65.817 160.244 67.5359L161.14 68.0627C161.14 68.0627 160.749 66.757 160.282 66.1124C160.282 66.1124 161.068 66.6248 161.392 68.226L161.95 68.6392C161.95 68.6392 161.648 67.6909 161.547 67.4264C161.446 67.162 161.497 67.1103 161.497 67.1103C161.88 67.6007 162.122 68.191 162.196 68.8148C162.196 68.8148 163.291 69.7672 163.354 69.7052Z" fill="#3D9E67"/>
<path opacity="0.1" d="M40.6727 162.009C43.2299 162.009 45.3029 161.771 45.3029 161.478C45.3029 161.184 43.2299 160.947 40.6727 160.947C38.1155 160.947 36.0425 161.184 36.0425 161.478C36.0425 161.771 38.1155 162.009 40.6727 162.009Z" fill="#3D9E67"/>
<path opacity="0.1" d="M10.3198 152.984C12.8769 152.984 14.9499 152.746 14.9499 152.453C14.9499 152.16 12.8769 151.922 10.3198 151.922C7.76258 151.922 5.68958 152.16 5.68958 152.453C5.68958 152.746 7.76258 152.984 10.3198 152.984Z" fill="#3D9E67"/>
<path opacity="0.1" d="M63.8096 168.002C66.3667 168.002 68.4398 167.764 68.4398 167.471C68.4398 167.178 66.3667 166.94 63.8096 166.94C61.2524 166.94 59.1794 167.178 59.1794 167.471C59.1794 167.764 61.2524 168.002 63.8096 168.002Z" fill="#3D9E67"/>
<path opacity="0.1" d="M182.374 154.947C184.931 154.947 187.004 154.709 187.004 154.416C187.004 154.123 184.931 153.885 182.374 153.885C179.817 153.885 177.744 154.123 177.744 154.416C177.744 154.709 179.817 154.947 182.374 154.947Z" fill="#3D9E67"/>
<path opacity="0.1" d="M143.844 152.371C146.401 152.371 148.474 152.133 148.474 151.84C148.474 151.546 146.401 151.309 143.844 151.309C141.287 151.309 139.214 151.546 139.214 151.84C139.214 152.133 141.287 152.371 143.844 152.371Z" fill="#3D9E67"/>
<path opacity="0.1" d="M118.919 164.936C121.943 164.936 124.395 164.504 124.395 163.971C124.395 163.438 121.943 163.006 118.919 163.006C115.894 163.006 113.443 163.438 113.443 163.971C113.443 164.504 115.894 164.936 118.919 164.936Z" fill="#3D9E67"/>
<path d="M121.362 154.273C121.362 154.273 113.737 158.315 117.676 163.075C117.676 163.075 118.047 164.108 119.118 164.035C119.118 164.035 118.905 163.635 119.722 163.314C120.013 163.199 120.29 163.048 120.546 162.866C120.892 162.62 121.151 162.266 121.283 161.856C121.283 161.856 122.842 159.715 121.634 155.755C121.634 155.755 121.791 154.635 121.654 154.453L120.727 155.757C120.727 155.757 121.684 156.416 121.795 157.385C121.795 157.385 120.788 155.759 120.586 155.939C120.542 155.976 120.127 156.651 120.127 156.651C120.127 156.651 121.787 157.806 121.909 159.306C121.909 159.306 120.975 157.205 119.966 156.906L119.388 157.963C119.388 157.963 121.201 159.096 121.402 160.798C121.402 160.798 120.349 158.639 119.273 158.203L118.848 159.321C118.848 159.321 120.596 160.461 120.757 161.878C120.757 161.878 119.295 159.509 118.77 159.583C118.77 159.583 118.439 160.633 118.484 160.957C118.484 160.957 119.718 161.804 119.74 162.637C119.74 162.637 118.6 161.159 118.425 161.257C118.425 161.257 118.353 162.742 118.703 163.515C118.703 163.515 118.099 162.411 118.198 161.257C117.844 161.577 117.59 161.996 117.467 162.463C117.467 162.463 117.138 161.647 118.22 160.895C118.22 160.895 118.323 159.74 118.447 159.598C118.447 159.598 117.277 160.184 116.78 160.903C116.78 160.903 116.963 159.831 118.55 159.298L118.953 158.166C118.953 158.166 117.366 158.856 116.876 159.463C116.876 159.463 117.229 158.399 119.078 157.889L119.626 156.856C119.626 156.856 118.216 157.344 117.527 157.889C117.527 157.889 118.061 156.974 119.795 156.552L120.24 155.901C120.24 155.901 119.217 156.275 118.931 156.41C118.645 156.544 118.588 156.478 118.588 156.478C119.111 156.024 119.746 155.728 120.423 155.623C120.423 155.623 121.432 154.344 121.362 154.273Z" fill="#3D9E67"/>
<path d="M143.993 77.9487C142.676 74.2774 135.425 73.9323 132.28 74.8682C130.044 75.5356 125.331 76.2876 122.814 76.6657L122.651 76.5066C122.977 76.4074 122.985 76.1636 122.945 75.8021C122.921 75.3256 122.928 74.848 122.965 74.3724C124.508 74.8641 125.881 73.7009 125.881 73.7009C127.694 72.8745 127.206 69.3375 127.553 68.3706C127.812 67.6475 128.092 63.3874 128.217 61.2635H128.243L128.258 60.5508C128.276 60.2429 128.284 60.0632 128.284 60.0632C128.284 60.0632 128.461 54.8692 128.807 53.8176C129.13 52.8507 129.391 47.9791 129.432 47.2064C129.432 47.1403 129.432 47.1052 129.432 47.1052L129.406 46.6548C129.424 46.3263 129.432 45.9606 129.43 45.5763C129.43 43.8099 129.25 41.5848 129.228 41.2253C129.228 41.1736 129.228 41.1116 129.228 41.0373C129.242 40.2832 129.15 36.5065 126.018 35.0789C124.864 34.55 123.476 33.9198 122.133 33.3062C121.787 30.2382 120.995 27.1867 121.064 24.096C121.064 23.6311 121.104 23.1662 121.148 22.7035C121.148 22.8377 121.134 22.9741 121.132 23.1167C121.132 23.4162 121.132 23.7179 121.132 24.0174C121.251 20.1519 122.675 16.2658 122.542 12.4829C122.53 12.8527 122.504 13.2246 122.469 13.5965C122.539 12.3169 122.408 11.0343 122.083 9.79707C121.962 9.36114 121.799 8.91075 121.45 8.61944C121.121 8.38483 120.743 8.2314 120.347 8.17112C119.394 7.92087 118.425 7.7359 117.448 7.61742C117.3 7.15128 117.08 6.71254 116.796 6.3179C114.754 3.44201 111.729 0.739663 108.152 0.119859C106.357 -0.190043 104.293 0.0682082 103.072 1.38426C102.945 1.49987 102.825 1.62411 102.714 1.75614C102.057 2.55982 101.775 3.61556 101.103 4.41717C101.059 4.47088 101.008 4.52047 100.96 4.57212C99.6427 5.78074 97.5904 6.03279 96.1262 7.11745C95.8682 7.31216 95.6264 7.52845 95.4032 7.76411C94.8132 8.36386 94.2842 9.02355 93.8242 9.73302C93.1656 10.6834 92.4889 11.673 92.2795 12.8073C91.8586 15.0799 93.367 17.2347 93.647 19.5218C94.2713 24.6393 88.7509 29.1804 89.7962 34.2298C90.0751 35.4702 90.691 36.6042 91.5726 37.5002C89.4196 39.5001 87.5868 41.4401 87.5868 41.4401V41.5558H87.2465L87.2807 41.969H87.2465L87.4338 44.2107L87.2465 47.475C87.2465 47.475 87.2465 47.5101 87.2465 47.5762V47.5927V47.6816C87.2465 47.6816 87.2465 47.7167 87.2465 47.7828H87.2586C87.321 48.979 87.5687 53.2805 87.8628 54.1874C88.2092 55.239 88.3844 60.433 88.3844 60.433C88.3844 60.433 88.7671 67.7736 89.1175 68.7446C89.4679 69.7156 88.9705 73.2423 90.7891 74.0749C91.3211 74.4935 91.9511 74.7614 92.6158 74.8517C92.5232 75.6244 92.5816 76.1843 92.8817 76.3599C93.0101 76.4374 93.1556 76.48 93.3046 76.4839C93.1812 76.6716 93.0715 76.8684 92.9763 77.0727C92.2545 76.9954 91.5452 76.8239 90.8656 76.5624C88.9121 75.736 82.429 73.8765 80.5459 75.1843C78.6628 76.4921 74.1313 77.678 76.2239 82.9422C78.3164 88.2064 79.2912 88.3387 79.2912 88.3387C79.9353 88.8183 80.5003 89.4007 80.9648 90.0638C81.5932 91.0327 87.4479 93.2496 88.9121 93.2496C89.5344 93.2397 90.1567 93.2715 90.775 93.3446C90.775 93.3446 89.186 94.7743 89.3974 95.6048C89.6089 96.4354 88.9141 103.084 88.9141 103.084C88.9141 103.084 90.5253 104.749 91.2141 102.565L91.2382 102.598C91.3671 102.778 92.064 103.59 93.3751 102.565C93.9117 102.148 94.4816 101.777 95.0789 101.458L101.427 100.536C102.089 100.494 102.753 100.489 103.415 100.522C104.422 100.607 105.411 99.9951 106.033 99.522C107.348 100.034 108.826 100.594 109.529 100.799C110.955 101.212 117.509 103.016 119.042 102.452C119.36 102.322 119.643 102.115 119.867 101.848L121.329 101.896L120.645 102.036C120.645 102.036 121.978 102.059 123.791 102.084L123.714 102.129L125.988 102.109C129.315 102.14 133.053 102.15 133.544 102.036C134.314 101.861 138.311 101.985 139.49 102.036H139.818C139.818 102.036 144.21 101.138 142.398 96.5655C141.004 93.0533 136.72 92.0327 134.819 91.7517C135.355 91.6422 135.816 91.5575 136.122 91.5079C137.449 91.3013 140.027 90.0617 140.237 89.6382C140.446 89.2146 142.607 87.9854 143.165 87.285C143.723 86.5846 145.316 81.62 143.993 77.9487ZM107.61 88.223L107.395 88.2953L107.25 88.3448L106.972 88.6258C106.75 88.4729 106.512 88.3118 106.265 88.1465C106.702 88.1734 107.151 88.2002 107.61 88.223Z" fill="url(#paint0_linear)"/>
<path d="M120.451 66.4389C120.451 66.4389 123.533 74.7029 125.285 73.8765C127.037 73.0501 126.562 69.5379 126.896 68.5751C127.23 67.6124 127.601 60.3111 127.601 60.3111C127.601 60.3111 127.77 55.1461 128.104 54.1007C128.415 53.14 128.666 48.2952 128.709 47.5328C128.709 47.4667 128.709 47.4316 128.709 47.4316L128.376 41.4401L126.495 40.9587L122.133 42.6116L121.529 46.1506L121.293 47.5328L121.192 48.1216L120.451 66.4389Z" fill="#BE6F72"/>
<path opacity="0.1" d="M121.466 65.0547C121.466 65.0547 124.407 67.5236 125.293 67.7405C126.179 67.9574 126.723 69.883 126.723 69.883" fill="black"/>
<path d="M96.3538 66.8005C96.3538 66.8005 93.2724 75.0645 91.5202 74.2381C89.768 73.4117 90.2433 69.8995 89.909 68.9367C89.5747 67.974 89.2041 60.6727 89.2041 60.6727C89.2041 60.6727 89.0349 55.5076 88.7006 54.4622C88.3904 53.5015 88.1387 48.6567 88.0964 47.8944C88.0964 47.8283 88.0964 47.7931 88.0964 47.7931L88.4307 41.8017L90.3118 41.3203L94.6741 42.9731L95.2783 46.5122L95.5139 47.8944L95.6146 48.4832L96.3538 66.8005Z" fill="#BE6F72"/>
<path d="M116.419 22.5753H109.542V33.5727H116.419V22.5753Z" fill="#3E373A"/>
<path opacity="0.1" d="M116.419 22.5753H109.542V33.5727H116.419V22.5753Z" fill="black"/>
<path d="M95.1454 75.0315C95.1454 75.0315 92.795 77.6822 93.6671 78.1636C94.5392 78.6449 100.18 87.6672 100.18 87.6672C100.18 87.6672 118.709 90.008 122.203 86.4958C125.698 82.9836 125.627 76.7091 125.627 76.7091C125.627 76.7091 122.82 77.3289 122.514 76.9921C122.207 76.6554 120.526 75.0315 120.526 75.0315C120.526 75.0315 96.7566 73.5522 95.1454 75.0315Z" fill="#4B4B5B"/>
<path opacity="0.02" d="M95.1454 75.0315C95.1454 75.0315 92.795 77.6822 93.6671 78.1636C94.5392 78.6449 100.18 87.6672 100.18 87.6672C100.18 87.6672 118.709 90.008 122.203 86.4958C125.698 82.9836 125.627 76.7091 125.627 76.7091C125.627 76.7091 122.82 77.3289 122.514 76.9921C122.207 76.6554 120.526 75.0315 120.526 75.0315C120.526 75.0315 96.7566 73.5522 95.1454 75.0315Z" fill="black"/>
<path d="M128.501 41.5268L122.459 46.4853L120.633 46.6216L119.962 46.6712L108.698 47.5183L97.0164 46.6423L95.2783 46.5121L93.0629 46.3468L88.4307 41.8016C88.4307 41.8016 91.7095 38.1985 94.5815 35.7668C95.7134 34.8061 96.7828 34.0293 97.5622 33.7235L97.6951 33.676C98.1854 33.4799 98.6231 33.1668 98.972 32.7628C101.24 30.3642 103.336 24.445 103.336 24.445C103.336 24.445 113.34 19.1436 112.132 26.0978C110.923 33.052 116.629 31.3331 116.629 31.3331L118.51 32.2132L119.253 32.5624L121.148 33.4529L125.424 35.4652C128.779 37.0498 128.501 41.5268 128.501 41.5268Z" fill="#BE6F72"/>
<path opacity="0.1" d="M108.228 30.108C113.197 30.108 117.225 25.9761 117.225 20.8792C117.225 15.7822 113.197 11.6503 108.228 11.6503C103.26 11.6503 99.2318 15.7822 99.2318 20.8792C99.2318 25.9761 103.26 30.108 108.228 30.108Z" fill="black"/>
<path opacity="0.1" d="M128.515 48.101H88.0964C88.0964 48.0349 88.0964 47.9998 88.0964 47.9998L88.4307 42.0083C88.4307 42.0083 91.7095 38.4052 94.5815 35.9735L119.958 34.9405L121.138 33.6637L125.414 35.676C128.771 37.2586 128.501 41.7356 128.501 41.7356C128.501 41.7356 128.96 46.9234 128.515 48.101Z" fill="black"/>
<path d="M128.515 47.8943H88.0964C88.0964 47.8282 88.0964 47.7931 88.0964 47.7931L88.4307 41.8017C88.4307 41.8017 91.7095 38.1985 94.5815 35.7668L119.958 34.7338L121.138 33.457L125.414 35.4693C128.771 37.0519 128.501 41.529 128.501 41.529C128.501 41.529 128.96 46.7167 128.515 47.8943Z" fill="#E7C7CA"/>
<path opacity="0.1" d="M101.749 31.0935C101.749 31.0935 108.126 39.4278 116.619 30.922C125.112 22.4162 117.559 49.8942 117.559 49.8942L99.2318 52.1255L101.749 31.0935Z" fill="black"/>
<path d="M101.749 31.5067C101.749 31.5067 108.126 39.841 116.619 31.3352C125.112 22.8294 117.559 50.3074 117.559 50.3074L99.2318 52.5387L101.749 31.5067Z" fill="#E7C7CA"/>
<path opacity="0.1" d="M119.243 32.9694L119.918 43.5247L120.641 47.0369L121.192 49.7227C121.192 49.7227 122.602 70.3829 122.199 71.4159C121.797 72.4489 122.401 73.2753 122.485 73.8249C122.57 74.3744 122.401 75.7545 122.467 76.3743C122.534 76.9941 122.467 77.2689 120.925 77.0478C119.382 76.8268 117.231 76.4425 117.231 76.4425C117.231 76.4425 111.793 76.8557 109.914 76.1677C108.035 75.4797 104.476 75.4777 104.476 75.4777C104.476 75.4777 99.105 75.6161 97.3608 75.4095C95.6167 75.2029 94.6742 77.6139 93.5342 76.9239C92.3943 76.2338 94.8756 69.5565 95.6812 67.6268C96.4868 65.6972 94.6077 60.809 94.6077 60.809L97.0245 47.0555L97.5622 43.9379V34.1367L97.6952 34.0892C98.1854 33.8931 98.6231 33.5801 98.972 33.176L99.5762 43.0392L118.508 43.7292V32.6285" fill="black"/>
<path d="M119.243 32.5562L119.918 43.1115L120.641 46.6237L121.192 49.3095C121.192 49.3095 122.602 69.9697 122.199 71.0027C121.797 72.0357 122.401 72.8621 122.485 73.4117C122.57 73.9612 122.401 75.3413 122.467 75.9611C122.534 76.5809 122.467 76.8557 120.925 76.6346C119.382 76.4136 117.231 76.0293 117.231 76.0293C117.231 76.0293 111.793 76.4425 109.914 75.7545C108.035 75.0665 104.476 75.0645 104.476 75.0645C104.476 75.0645 99.105 75.2029 97.3608 74.9963C95.6167 74.7897 94.6742 77.2007 93.5342 76.5107C92.3943 75.8206 94.8756 69.1433 95.6812 67.2136C96.4868 65.284 94.6077 60.3958 94.6077 60.3958L97.0245 46.6423L97.5622 43.5247V33.7235L97.6952 33.676C98.1854 33.4799 98.6231 33.1669 98.972 32.7628L99.5762 42.626L118.508 43.316V32.2153" fill="#E7C7CA"/>
<path opacity="0.1" d="M121.42 10.5284C121.305 10.0966 121.146 9.64827 120.816 9.35903C120.5 9.1267 120.136 8.97382 119.752 8.91276C118.834 8.66497 117.9 8.48136 116.957 8.36321C116.822 7.90445 116.618 7.47015 116.353 7.07608C114.379 4.21671 111.459 1.52057 108.023 0.911093C106.224 0.590861 104.14 0.878036 102.988 2.33251C102.356 3.13206 102.084 4.19192 101.445 4.97701C100.215 6.50173 97.9932 6.68973 96.4424 7.86943C95.6147 8.48923 95.0145 9.38795 94.4284 10.2598C93.794 11.204 93.1415 12.1874 92.9401 13.3154C92.5373 15.5695 93.9894 17.7181 94.2573 19.9928C94.8615 25.0814 89.5445 29.5956 90.5495 34.616C91.1356 37.5436 93.7719 39.6055 96.4988 40.6509C97.4595 41.0207 98.5571 41.3884 99.0063 42.3347C99.2077 42.7479 99.2419 43.2251 99.4312 43.6425C100.068 45.035 102.16 45.0887 103.284 44.0743C104.408 43.0598 104.762 41.4194 104.895 39.8885C105.435 33.2029 102.825 26.5978 103.129 19.8957C103.22 17.8689 103.775 15.5695 105.546 14.6522C107.928 13.4125 110.794 15.4786 113.416 15.0839C114.657 18.1812 114.921 21.5995 114.17 24.8583C113.753 26.6412 113.032 28.3705 112.979 30.2092C112.901 33.0087 114.373 35.5664 115.646 38.0415C115.919 38.5043 116.102 39.0173 116.184 39.5518C116.204 40.094 116.105 40.634 115.896 41.1323C115.177 43.1177 113.936 44.9606 113.795 47.0741C113.754 47.3208 113.808 47.5743 113.946 47.7807C114.088 47.9184 114.271 48.0029 114.466 48.0203C116.641 48.4026 118.522 46.4254 119.583 44.4399C120.767 42.247 121.456 39.8101 121.601 37.3081C121.821 33.1017 120.351 28.9634 120.441 24.7529C120.546 19.9659 122.655 15.1459 121.42 10.5284Z" fill="black"/>
<path d="M121.621 10.3218C121.507 9.89005 121.348 9.44172 121.017 9.15248C120.702 8.92016 120.338 8.76728 119.954 8.70622C119.035 8.45842 118.101 8.27482 117.158 8.15666C117.024 7.69791 116.82 7.26361 116.554 6.86954C114.58 4.01017 111.66 1.31402 108.224 0.70455C106.426 0.384318 104.341 0.671493 103.189 2.12597C102.557 2.92551 102.285 3.98538 101.647 4.77047C100.416 6.29518 98.1946 6.48319 96.6438 7.66289C95.816 8.28269 95.2159 9.18141 94.6298 10.0533C93.9954 10.9974 93.3429 11.9809 93.1415 13.1089C92.7387 15.3629 94.1908 17.5116 94.4586 19.7863C95.0628 24.8748 89.7458 29.3891 90.7508 34.4095C91.3369 37.337 93.9732 39.3989 96.7002 40.4443C97.6609 40.8141 98.7585 41.1819 99.2076 42.1281C99.409 42.5413 99.4433 43.0186 99.6326 43.4359C100.269 44.8284 102.362 44.8821 103.485 43.8677C104.609 42.8533 104.964 41.2129 105.097 39.682C105.636 32.9964 103.026 26.3913 103.33 19.6892C103.421 17.6624 103.977 15.3629 105.747 14.4456C108.13 13.206 110.996 15.272 113.618 14.8774C114.859 17.9746 115.122 21.3929 114.371 24.6517C113.954 26.4347 113.233 28.1639 113.181 30.0027C113.102 32.8021 114.574 35.3599 115.847 37.835C116.12 38.2978 116.303 38.8108 116.385 39.3452C116.405 39.8875 116.307 40.4275 116.097 40.9257C115.378 42.9112 114.137 44.754 113.996 46.8676C113.955 47.1143 114.009 47.3678 114.147 47.5741C114.289 47.7119 114.472 47.7963 114.667 47.8138C116.842 48.196 118.723 46.2188 119.785 44.2334C120.968 42.0405 121.658 39.6036 121.803 37.1015C122.022 32.8951 120.552 28.7569 120.643 24.5464C120.747 19.7594 122.856 14.9394 121.621 10.3218Z" fill="#3E373A"/>
<path d="M117.173 101.799L125.162 102.061L124.016 95.9829L117.896 96.58L117.173 101.799Z" fill="#C3C7D9"/>
<path d="M141.929 87.3924C141.391 88.0804 139.31 89.32 139.109 89.7332C138.908 90.1464 136.424 91.386 135.147 91.5926C133.871 91.7992 129.845 92.6959 129.105 93.1773C128.576 93.5244 124.324 94.6235 121.531 95.2329C120.774 95.4166 120.008 95.558 119.237 95.6565C118.028 95.7247 104.805 91.1112 104.805 91.1112L107.354 88.4254L107.495 88.3758C108.216 88.1259 111.547 86.971 113.396 86.4214C115.479 85.8016 117.896 83.2542 117.896 83.2542C117.896 83.2542 121.452 82.0146 121.924 81.8762C122.395 81.7377 120.715 77.0562 120.715 77.0562C120.715 77.0562 128.435 75.957 131.456 75.0253C134.477 74.0935 141.459 74.4385 142.734 78.0892C144.009 81.7398 142.474 86.7044 141.929 87.3924Z" fill="#4B4B5B"/>
<path d="M106.75 99.0303C106.75 99.0303 105.207 100.683 103.663 100.547C102.118 100.41 96.7164 100.96 96.7164 100.96C95.7375 101.361 94.8208 101.905 93.9954 102.578C92.7327 103.598 92.062 102.784 91.9371 102.611L91.915 102.578C91.2423 104.749 89.6996 103.094 89.6996 103.094C89.6996 103.094 90.3702 96.4829 90.1648 95.6565C89.9594 94.8301 91.492 93.4107 91.492 93.4107L93.3046 92.9376L97.8966 91.7311L104.476 94.0719L106.75 99.0303Z" fill="#E7C7CA"/>
<path opacity="0.1" d="M93.2966 92.9376L91.9371 102.611L91.915 102.578C91.2423 104.749 89.6996 103.094 89.6996 103.094C89.6996 103.094 90.3703 96.4829 90.1648 95.6565C89.9594 94.8301 91.492 93.4107 91.492 93.4107L93.2966 92.9376Z" fill="black"/>
<path opacity="0.1" d="M102.799 65.4224C102.799 65.4224 106.355 66.6619 109.445 65.4224H102.799Z" fill="black"/>
<path opacity="0.1" d="M114.941 67.7653C114.941 67.7653 116.417 68.5214 117.559 67.7653H114.941Z" fill="black"/>
<path opacity="0.1" d="M114.941 69.5585C114.941 69.5585 117.424 69.8994 117.896 69.2114L114.941 69.5585Z" fill="black"/>
<path opacity="0.1" d="M114.135 73.4117C114.135 73.4117 118.8 72.7919 119.958 71.9655L114.135 73.4117Z" fill="black"/>
<path opacity="0.1" d="M99.9025 71.9655C99.9025 71.9655 102.521 73.4798 104.468 73.4117L99.9025 71.9655Z" fill="black"/>
<path opacity="0.1" d="M121.529 95.2329C120.772 95.4166 120.006 95.5579 119.235 95.6565C118.026 95.7246 104.803 91.1113 104.803 91.1113L107.352 88.4254L107.493 88.3759C107.896 88.6672 108.226 88.9172 108.462 89.1072C109.572 90.0039 110.643 88.8324 111.046 88.8324C111.449 88.8324 114.939 91.793 114.939 91.793C114.939 91.793 118.161 92.5513 118.699 93.2392C119.237 93.9272 121.116 93.7909 121.45 94.2722C121.551 94.421 121.563 94.7867 121.529 95.2329Z" fill="black"/>
<path d="M96.7163 77.3371C96.7163 77.3371 93.4577 77.5292 91.5786 76.7173C89.6995 75.9053 83.4561 74.0315 81.6435 75.3475C79.8309 76.6636 75.4666 77.8267 77.4806 83.062C79.4946 88.2973 80.4351 88.4336 80.4351 88.4336C81.0583 88.913 81.6023 89.492 82.0463 90.1484C82.6505 91.1133 88.2898 93.3156 89.6996 93.3156C91.1094 93.3156 93.5926 93.3156 97.0829 95.7948C100.573 98.2741 103.729 98.5509 103.729 98.5509C103.729 98.5509 108.16 100.41 109.539 100.824C110.919 101.237 117.223 103.026 118.701 102.476C120.179 101.927 121.118 98.4807 121.118 98.4807C121.118 98.4807 121.789 95.3816 121.452 94.9003C121.116 94.4189 119.237 94.5552 118.701 93.8673C118.165 93.1793 114.941 92.421 114.941 92.421C114.941 92.421 111.459 89.4584 111.056 89.4584C110.653 89.4584 109.582 90.6277 108.472 89.7332C106.261 88.0536 103.939 86.5348 101.522 85.1879C98.972 83.8099 96.7163 77.3371 96.7163 77.3371Z" fill="#4B4B5B"/>
<path opacity="0.1" d="M90.1648 79.335C90.745 79.2134 91.3448 79.2309 91.9173 79.386C92.4899 79.5412 93.0198 79.8299 93.4657 80.2296C95.0769 81.6076 100.499 84.374 100.499 84.374" fill="black"/>
<path opacity="0.1" d="M130.449 79.2482C130.449 79.2482 123.265 80.3638 121.924 81.8782L130.449 79.2482Z" fill="black"/>
<path d="M138.706 102.061H138.39C137.254 102.02 133.405 101.896 132.664 102.061C131.792 102.268 120.244 102.061 120.244 102.061L122.502 101.58C122.502 101.58 121.664 98.5675 122.195 98.3175C122.195 98.3175 119.174 96.2763 121.452 94.8983C123.73 93.5202 126.185 94.1008 126.185 94.1008L131.903 92.1133L133.001 91.7311C133.001 91.7311 139.445 92.0761 141.189 96.6213C142.934 101.167 138.706 102.061 138.706 102.061Z" fill="#E7C7CA"/>
<path opacity="0.1" d="M138.706 102.061H138.39C140.265 100.474 144.507 95.644 131.903 92.1235L133.001 91.7413C133.001 91.7413 139.445 92.0864 141.19 96.6316C142.934 101.177 138.706 102.061 138.706 102.061Z" fill="black"/>
<path d="M126.858 96.706C127.052 96.706 127.21 96.5441 127.21 96.3445C127.21 96.1448 127.052 95.9829 126.858 95.9829C126.663 95.9829 126.505 96.1448 126.505 96.3445C126.505 96.5441 126.663 96.706 126.858 96.706Z" fill="#4B4B5B"/>
<path d="M124.81 97.3031C125.004 97.3031 125.162 97.1412 125.162 96.9415C125.162 96.7418 125.004 96.58 124.81 96.58C124.615 96.58 124.457 96.7418 124.457 96.9415C124.457 97.1412 124.615 97.3031 124.81 97.3031Z" fill="#4B4B5B"/>
<g opacity="0.1">
<path opacity="0.1" d="M114.83 20.5378C114.908 18.2654 114.514 16.0019 113.674 13.8977C111.056 14.2985 108.188 12.2263 105.803 13.4659C104.039 14.3832 103.485 16.6827 103.387 18.7094C103.363 19.2445 103.358 19.7796 103.369 20.3147C103.369 20.1246 103.369 19.9325 103.387 19.7424C103.479 17.7157 104.033 15.4162 105.803 14.4989C108.188 13.2593 111.052 15.3253 113.674 14.9307C114.386 16.713 114.777 18.6126 114.83 20.5378Z" fill="black"/>
<path opacity="0.1" d="M94.5412 20.1601C94.5757 19.71 94.5669 19.2574 94.515 18.809C94.3015 16.9909 93.3328 15.2534 93.1576 13.4807C92.932 15.619 94.2592 17.6727 94.515 19.842C94.5412 19.9535 94.5412 20.0527 94.5412 20.1601Z" fill="black"/>
<path opacity="0.1" d="M105.153 38.7005C105.028 40.2335 104.676 41.8719 103.542 42.8884C102.408 43.9048 100.319 43.8491 99.689 42.4566C99.4876 42.0434 99.4574 41.562 99.262 41.1488C98.8149 40.2025 97.7153 39.8348 96.7546 39.465C94.0256 38.4175 91.3933 36.3659 90.8073 33.4301C90.7549 33.1642 90.7192 32.895 90.7005 32.6244C90.651 33.2394 90.6869 33.8585 90.8073 34.4631C91.3933 37.3907 94.0297 39.4505 96.7546 40.498C97.7153 40.8678 98.8149 41.2355 99.262 42.1818C99.4634 42.595 99.4977 43.0722 99.689 43.4896C100.323 44.8821 102.416 44.9358 103.542 43.9214C104.668 42.9069 105.018 41.2665 105.153 39.7335C105.214 38.9267 105.235 38.1171 105.215 37.308C105.215 37.777 105.189 38.2398 105.153 38.7005Z" fill="black"/>
<path opacity="0.1" d="M120.709 23.567C120.709 23.8666 120.709 24.1641 120.709 24.4616C120.822 20.6188 122.195 16.7554 122.06 12.9932C121.956 16.4723 120.786 20.03 120.709 23.567Z" fill="black"/>
<path opacity="0.1" d="M116.387 39.1116C116.437 38.8665 116.452 38.6154 116.433 38.3658C116.352 37.8311 116.17 37.318 115.896 36.8556C114.732 34.5829 113.404 32.2566 113.247 29.734C113.247 29.8414 113.233 29.9406 113.231 30.0563C113.151 32.8537 114.623 35.4135 115.896 37.8886C116.112 38.2719 116.277 38.6833 116.387 39.1116Z" fill="black"/>
<path opacity="0.1" d="M121.867 36.1222C121.717 38.6252 121.022 41.062 119.835 43.2541C118.772 45.2395 116.893 47.2167 114.715 46.8345C114.52 46.8172 114.337 46.7319 114.196 46.5927C114.155 46.5454 114.123 46.4908 114.101 46.4316C114.077 46.5927 114.057 46.756 114.045 46.9212C114.003 47.1673 114.057 47.4203 114.196 47.6258C114.337 47.7649 114.52 47.8502 114.715 47.8675C116.893 48.2497 118.772 46.2725 119.835 44.2871C121.022 42.095 121.717 39.6582 121.867 37.1552C121.891 36.6717 121.893 36.1904 121.879 35.709C121.875 35.8474 121.875 35.9838 121.867 36.1222Z" fill="black"/>
</g>
<path opacity="0.1" d="M122.195 98.3175C122.195 98.3175 127.293 100.512 130.654 95.6565" stroke="black" stroke-miterlimit="10"/>
<path opacity="0.1" d="M123.198 102.152C123.198 102.152 127.361 99.3753 132.664 102.061" stroke="black" stroke-miterlimit="10"/>
<path opacity="0.1" d="M95.3327 101.522C95.3327 101.522 97.0809 97.4767 101.749 100.561" stroke="black" stroke-miterlimit="10"/>
<path opacity="0.1" d="M89.6653 41.6984L93.2301 38.3928C93.2301 38.3928 107.052 37.4631 107.624 42.2831C107.624 42.2831 112.524 36.5685 122.83 37.8411L127.19 41.4029L115.138 46.8283L103.427 50.9954L94.801 47.0349L89.6653 41.6984Z" fill="black"/>
<path d="M89.6653 41.9049L93.2301 38.5993C93.2301 38.5993 107.052 37.6696 107.624 42.4896C107.624 42.4896 112.524 36.775 122.83 38.0477L127.19 41.6095L115.138 47.0348L103.427 51.202L94.801 47.2414L89.6653 41.9049Z" fill="#D5D6DB"/>
<path opacity="0.1" d="M88.0884 42.3182L89.6653 61.6706L106.382 62.5321L105.656 43.2624L105.642 42.938L88.0884 42.3182Z" fill="black"/>
<path d="M88.0884 41.9049L89.6653 61.2573L106.382 62.1188L105.656 42.8491L105.642 42.5247L88.0884 41.9049Z" fill="#3D9E67"/>
<path opacity="0.1" d="M127.955 41.9049L110.712 44.5577V63.9968L127.563 61.499L127.955 41.9049Z" fill="black"/>
<path d="M127.955 41.4917L110.712 44.1445V63.5836L127.563 61.0858L127.955 41.4917Z" fill="#3D9E67"/>
<path opacity="0.3" d="M123.889 46.2354L114.574 47.2973L114.778 50.5533L123.883 49.5327L123.889 46.2354Z" fill="white"/>
<path d="M90.5716 71.6204L91.5202 74.2381C91.5202 74.2381 92.93 75.4777 94.4728 74.8579C96.0155 74.2381 97.3608 73.9302 98.0315 73.327C98.7022 72.7237 99.6427 69.6929 99.6427 69.6929C99.6427 69.6929 100.583 66.3872 101.522 65.5608C102.46 64.7344 104.946 53.3486 101.522 54.4622C98.098 55.5758 95.4798 65.9059 95.4798 65.9059C95.4798 65.9059 94.8756 66.662 94.0035 66.7323C93.1314 66.8025 91.3853 66.5938 91.049 67.3521C90.7126 68.1103 89.5646 70.106 90.5716 71.6204Z" fill="#BE6F72"/>
<path opacity="0.1" d="M110.712 44.5557C109.829 44.7597 108.912 44.7491 108.033 44.5245C107.155 44.2999 106.341 43.8677 105.654 43.2623L106.381 62.53C106.381 62.53 108.093 64.4307 110.712 63.9969V44.5557Z" fill="black"/>
<path d="M110.712 44.1424C109.829 44.3465 108.912 44.3359 108.033 44.1113C107.155 43.8867 106.341 43.4545 105.654 42.8491L106.381 62.1168C106.381 62.1168 108.093 64.0175 110.712 63.5836V44.1424Z" fill="#3D9E67"/>
<path opacity="0.1" d="M110.712 44.1424C109.829 44.3465 108.912 44.3359 108.033 44.1113C107.155 43.8867 106.341 43.4545 105.654 42.8491L106.381 62.1168C106.381 62.1168 108.093 64.0175 110.712 63.5836V44.1424Z" fill="black"/>
<path opacity="0.1" d="M111.114 41.9711C111.114 41.9711 118.129 39.7708 119.958 40.0807L111.114 41.9711Z" fill="black"/>
<path opacity="0.1" d="M103.268 41.0104C103.268 41.0104 96.4686 39.3576 95.3327 39.8266L103.268 41.0104Z" fill="black"/>
<path opacity="0.1" d="M115.537 42.2459C115.537 42.2459 120.228 40.4815 121.924 41.3203L115.537 42.2459Z" fill="black"/>
<path opacity="0.1" d="M113.175 86.506C113.902 85.946 114.675 85.4531 115.487 85.0329C116.695 84.4359 118.911 82.8864 118.911 82.8864" fill="black"/>
<path opacity="0.1" d="M95.3327 65.4224C95.3327 65.4224 92.3903 67.8912 91.5061 68.1082C90.622 68.3251 90.0762 70.2506 90.0762 70.2506" fill="black"/>
<path d="M126.225 71.2527L125.287 73.8765C125.287 73.8765 123.877 75.1161 122.332 74.4963C120.788 73.8765 119.446 73.5687 118.774 72.9654C118.101 72.3621 117.162 69.3313 117.162 69.3313C117.162 69.3313 116.224 66.0257 115.283 65.1993C114.343 64.3728 111.86 52.987 115.283 54.1006C118.707 55.2142 121.325 65.5443 121.325 65.5443C121.325 65.5443 121.93 66.3004 122.802 66.3707C123.674 66.4409 125.42 66.2323 125.756 66.9905C126.092 67.7487 127.232 69.7445 126.225 71.2527Z" fill="#BE6F72"/>
<path opacity="0.1" d="M124.58 66.4265C124.58 66.4265 126.503 67.6951 126.495 69.2115L124.58 66.4265Z" fill="black"/>
<path d="M108.261 29.6555C113.229 29.6555 117.257 25.5236 117.257 20.4266C117.257 15.3297 113.229 11.1978 108.261 11.1978C103.292 11.1978 99.264 15.3297 99.264 20.4266C99.264 25.5236 103.292 29.6555 108.261 29.6555Z" fill="#BE6F72"/>
<path d="M102.611 17.9496C103.703 17.774 104.659 17.1232 105.703 16.7492C108.037 15.9084 110.619 16.4848 112.981 17.243C113.888 17.5343 114.808 17.8628 115.759 17.8628C116.709 17.8628 117.718 17.4641 118.204 16.6232C118.651 15.8505 118.564 14.8464 118.188 14.0345C117.811 13.2225 117.181 12.5697 116.544 11.954C114.45 9.92519 111.851 8.02859 108.978 8.23519C107.821 8.3199 106.716 8.74343 105.652 9.21242C104.313 9.80433 103.01 10.4777 101.749 11.2288C100.781 11.8053 98.9861 12.5759 98.4282 13.6296C97.1594 16.0034 100.638 18.2678 102.611 17.9496Z" fill="#3E373A"/>
<path opacity="0.1" d="M118.204 15.7554C117.718 16.5963 116.709 16.995 115.759 16.995C114.808 16.995 113.888 16.6789 112.979 16.3876C110.617 15.6294 108.037 15.0509 105.701 15.8938C104.66 16.2678 103.701 16.9269 102.609 17.0921C101.018 17.3483 98.4565 15.9269 98.1785 14.1191C97.8664 16.2079 100.837 17.997 102.609 17.7119C103.701 17.5363 104.66 16.8855 105.701 16.5137C108.037 15.6707 110.617 16.2492 112.979 17.0074C113.888 17.2987 114.806 17.6272 115.759 17.6148C116.711 17.6024 117.718 17.2182 118.204 16.3752C118.455 15.9167 118.554 15.3865 118.486 14.865C118.454 15.1789 118.358 15.4825 118.204 15.7554Z" fill="black"/>
<path d="M191.213 127.723C191.213 127.723 192.408 129.324 190.661 131.744C188.915 134.163 187.477 136.204 188.057 137.712C188.057 137.712 190.692 133.221 192.834 133.157C194.977 133.093 193.568 130.423 191.213 127.723Z" fill="#3D9E67"/>
<path opacity="0.1" d="M191.213 127.723C191.317 127.878 191.399 128.047 191.457 128.225C193.547 130.746 194.663 133.099 192.651 133.157C190.778 133.213 188.533 136.648 187.995 137.514C188.012 137.584 188.033 137.653 188.057 137.721C188.057 137.721 190.692 133.229 192.835 133.165C194.977 133.101 193.568 130.423 191.213 127.723Z" fill="black"/>
<path d="M193.429 129.764C193.429 130.328 193.366 130.785 193.292 130.785C193.217 130.785 193.153 130.328 193.153 129.764C193.153 129.2 193.229 129.467 193.306 129.467C193.382 129.467 193.429 129.2 193.429 129.764Z" fill="#FFD037"/>
<path d="M194.192 130.438C193.711 130.706 193.29 130.87 193.253 130.801C193.217 130.733 193.578 130.458 194.059 130.182C194.54 129.905 194.351 130.107 194.387 130.182C194.424 130.256 194.675 130.167 194.192 130.438Z" fill="#FFD037"/>
<path d="M184.901 127.723C184.901 127.723 183.707 129.324 185.453 131.744C187.199 134.163 188.637 136.204 188.055 137.712C188.055 137.712 185.423 133.221 183.278 133.157C181.133 133.093 182.553 130.423 184.901 127.723Z" fill="#3D9E67"/>
<path opacity="0.1" d="M184.901 127.723C184.797 127.878 184.715 128.047 184.658 128.225C182.567 130.746 181.451 133.099 183.463 133.157C185.334 133.213 187.582 136.648 188.12 137.514C188.103 137.584 188.081 137.653 188.055 137.721C188.055 137.721 185.423 133.229 183.278 133.165C181.133 133.101 182.553 130.423 184.901 127.723Z" fill="black"/>
<path d="M182.682 129.764C182.682 130.328 182.742 130.785 182.819 130.785C182.895 130.785 182.958 130.328 182.958 129.764C182.958 129.2 182.879 129.467 182.805 129.467C182.73 129.467 182.682 129.2 182.682 129.764Z" fill="#FFD037"/>
<path d="M181.921 130.438C182.402 130.706 182.823 130.87 182.859 130.801C182.895 130.733 182.535 130.458 182.054 130.182C181.572 129.905 181.761 130.107 181.725 130.182C181.689 130.256 181.437 130.167 181.921 130.438Z" fill="#FFD037"/>
<path opacity="0.1" d="M188.057 149.968C194.954 149.968 200.544 149.088 200.544 148.003C200.544 146.918 194.954 146.038 188.057 146.038C181.161 146.038 175.57 146.918 175.57 148.003C175.57 149.088 181.161 149.968 188.057 149.968Z" fill="#3D9E67"/>
<path d="M194.484 135.553L194.423 136.053L194.339 136.76L194.305 137.055L194.22 137.762L194.184 138.057L194.101 138.762L193.145 146.799C193.06 147.516 191.918 148.075 190.538 148.075H185.574C184.194 148.075 183.054 147.516 182.968 146.799L182.011 138.762L181.927 138.057L181.892 137.762L181.808 137.055L181.772 136.76L181.689 136.053L181.629 135.553C181.582 135.14 182.199 134.805 182.98 134.805H193.135C193.914 134.805 194.532 135.146 194.484 135.553Z" fill="#65617D"/>
<path d="M194.423 136.053L194.341 136.76H181.774L181.689 136.053H194.423Z" fill="#9D9CB5"/>
<path d="M194.305 137.055L194.222 137.762H181.892L181.808 137.055H194.305Z" fill="#9D9CB5"/>
<path d="M194.186 138.057L194.101 138.764H182.011L181.929 138.057H194.186Z" fill="#9D9CB5"/>
</g>
<defs>
<linearGradient id="paint0_linear" x1="110.093" y1="103.697" x2="110.093" y2="2.93411e-05" gradientUnits="userSpaceOnUse">
<stop stop-color="#808080" stop-opacity="0.25"/>
<stop offset="0.54" stop-color="#808080" stop-opacity="0.12"/>
<stop offset="1" stop-color="#808080" stop-opacity="0.1"/>
</linearGradient>
<clipPath id="clip0">
<rect width="206" height="168" fill="white"/>
</clipPath>
</defs>
</svg>
