<svg width="206" height="167" viewBox="0 0 206 167" fill="none" xmlns="http://www.w3.org/2000/svg">
<g clip-path="url(#clip0)">
<path d="M205.897 166.432H0V166.871H205.897V166.432Z" fill="#3F3D56"/>
<path d="M104.232 45.2492H103.354V21.2109C103.354 19.3838 102.993 17.5747 102.294 15.8867C101.594 14.1987 100.569 12.665 99.2761 11.3731C97.9834 10.0811 96.4487 9.05633 94.7597 8.35715C93.0707 7.65796 91.2604 7.2981 89.4323 7.2981H38.4727C36.6445 7.29809 34.8343 7.65795 33.1453 8.35713C31.4563 9.05631 29.9216 10.0811 28.6289 11.373C27.3362 12.6649 26.3107 14.1987 25.6111 15.8866C24.9115 17.5746 24.5514 19.3838 24.5514 21.2108V153.087C24.5514 156.777 26.0181 160.316 28.6288 162.925C31.2396 165.534 34.7805 167 38.4726 167H89.4322C93.1244 167 96.6653 165.534 99.276 162.925C101.887 160.316 103.353 156.777 103.353 153.087V62.3601H104.232L104.232 45.2492Z" fill="#3F3D56"/>
<path d="M100.391 21.308V152.99C100.391 155.746 99.2957 158.389 97.346 160.337C95.3962 162.286 92.7518 163.381 89.9944 163.381H38.7882C37.423 163.381 36.0712 163.112 34.81 162.59C33.5487 162.067 32.4028 161.302 31.4375 160.337C30.4723 159.372 29.7067 158.227 29.1844 156.966C28.6622 155.706 28.3935 154.355 28.3937 152.99V21.308C28.3935 19.9436 28.6621 18.5926 29.1844 17.332C29.7067 16.0714 30.4723 14.926 31.4375 13.9612C32.4028 12.9963 33.5487 12.2309 34.81 11.7087C36.0712 11.1865 37.423 10.9177 38.7882 10.9176H45.0021C44.6957 11.6671 44.5785 12.4805 44.661 13.286C44.7435 14.0915 45.023 14.8643 45.475 15.5363C45.927 16.2082 46.5374 16.7588 47.2526 17.1392C47.9677 17.5197 48.7656 17.7185 49.5757 17.718H78.7699C79.58 17.7184 80.3778 17.5196 81.0928 17.139C81.8078 16.7585 82.4181 16.2079 82.8699 15.5359C83.3216 14.8638 83.6009 14.091 83.6832 13.2856C83.7654 12.4802 83.648 11.667 83.3414 10.9176H89.9944C92.7518 10.9177 95.3962 12.0124 97.346 13.9609C99.2957 15.9095 100.391 18.5523 100.391 21.308Z" fill="white"/>
<path d="M51.5387 46.2887C59.0572 46.2887 65.1521 40.1975 65.1521 32.6836C65.1521 25.1697 59.0572 19.0785 51.5387 19.0785C44.0202 19.0785 37.9253 25.1697 37.9253 32.6836C37.9253 40.1975 44.0202 46.2887 51.5387 46.2887Z" fill="#FF6584"/>
<path d="M85.9761 97.8762C86.9749 87.7528 83.76 79.1496 78.7955 78.6604C73.831 78.1712 68.9968 85.9813 67.9981 96.1047C66.9993 106.228 70.2142 114.831 75.1787 115.321C80.1432 115.81 84.9774 108 85.9761 97.8762Z" fill="#3F3D56"/>
<path d="M74.8572 127.076C73.3867 105.134 79.0727 83.9754 79.1303 83.7644L79.8189 83.952C79.7616 84.1619 74.1072 105.209 75.5693 127.028L74.8572 127.076Z" fill="#3D9E67"/>
<path d="M85.29 93.8287L76.7328 97.3729L77.0061 98.032L85.5633 94.4878L85.29 93.8287Z" fill="#3D9E67"/>
<path d="M68.7032 94.3928L68.3062 94.9857L76.0048 100.134L76.4018 99.5414L68.7032 94.3928Z" fill="#3D9E67"/>
<path d="M75.7596 68.3257C77.713 48.5255 71.4251 31.6986 61.7151 30.7418C52.0051 29.785 42.5501 45.0606 40.5966 64.8608C38.6432 84.661 44.9311 101.488 54.6411 102.445C64.3511 103.401 73.8062 88.1259 75.7596 68.3257Z" fill="#E6E6E6"/>
<path d="M54.3524 125.414C51.4803 82.554 62.5864 41.2269 62.6989 40.8145L63.3875 41.002C63.2753 41.4134 52.2008 82.6296 55.0645 125.366L54.3524 125.414Z" fill="#3F3D56"/>
<path d="M74.5483 60.7242L57.8111 67.6564L58.0844 68.3154L74.8216 61.3832L74.5483 60.7242Z" fill="#3F3D56"/>
<path d="M41.7856 61.7945L41.3886 62.3875L56.4462 72.457L56.8431 71.8641L41.7856 61.7945Z" fill="#3F3D56"/>
<path d="M126.006 51.4889C128.679 24.3938 120.075 1.36757 106.787 0.0582753C93.5 -1.25102 80.5615 19.6525 77.8884 46.7475C75.2153 73.8425 83.8198 96.8688 97.1072 98.1781C110.395 99.4874 123.333 78.5839 126.006 51.4889Z" fill="#3D9E67"/>
<path d="M96.8434 129.601C92.9146 70.9722 108.107 14.4407 108.261 13.8766L108.949 14.0641C108.796 14.6272 93.6351 71.0478 97.5555 129.553L96.8434 129.601Z" fill="#3F3D56"/>
<path d="M124.399 41.2081L101.495 50.6942L101.769 51.3533L124.672 41.8671L124.399 41.2081Z" fill="#3F3D56"/>
<path d="M79.4423 42.6609L79.0453 43.2538L99.6505 57.0329L100.047 56.44L79.4423 42.6609Z" fill="#3F3D56"/>
<path d="M28.3937 128.863L27.9546 153.55C27.9546 159.391 33.0464 164.127 38.7882 164.127H89.9944C95.7362 164.127 100.83 159.391 100.83 153.55L100.391 129.079C74.5758 119.079 50.7046 119.706 28.3937 128.863Z" fill="#3D9E67"/>
<path d="M137.634 43.0264L140.359 40.8478C138.242 40.6143 137.372 41.7684 137.016 42.6819C135.362 41.9954 133.561 42.8951 133.561 42.8951L139.014 44.8737C138.739 44.1393 138.26 43.4985 137.634 43.0264Z" fill="#3F3D56"/>
<path d="M71.0152 23.7928L73.7408 21.6141C71.6234 21.3807 70.7534 22.5348 70.3973 23.4482C68.7431 22.7618 66.9423 23.6614 66.9423 23.6614L72.3958 25.64C72.1207 24.9056 71.6418 24.2649 71.0152 23.7928Z" fill="#3F3D56"/>
<path d="M179.678 15.2116L182.403 13.033C180.286 12.7995 179.416 13.9536 179.06 14.8671C177.406 14.1806 175.605 15.0802 175.605 15.0802L181.058 17.0589C180.783 16.3245 180.304 15.6837 179.678 15.2116Z" fill="#3F3D56"/>
<path d="M175.369 115.417L175.322 119.128C175.318 119.486 175.234 119.839 175.077 120.161C174.919 120.483 174.692 120.766 174.412 120.99C174.132 121.213 173.806 121.372 173.457 121.455C173.109 121.537 172.746 121.542 172.395 121.467C172.036 121.391 171.699 121.234 171.409 121.008C171.119 120.783 170.884 120.494 170.723 120.165C170.561 119.835 170.476 119.473 170.475 119.106C170.474 118.739 170.556 118.376 170.716 118.045L171.957 115.474L174.53 96.8168L173.542 84.3494L178.372 84.118L179.4 98.3789L175.369 115.417Z" fill="#FFB9B9"/>
<path d="M151.703 135.135L147.059 160.125L149.381 159.768L157.954 134.599L151.703 135.135Z" fill="#FFB9B9"/>
<path d="M173.94 135.402L176.887 161.017L179.387 160.66L180.013 135.224L173.94 135.402Z" fill="#FFB9B9"/>
<path d="M200.374 127.905C193.716 133.251 185.921 141.101 178.159 138.177C170.06 135.125 160.713 134.932 150.185 136.295C152.699 120.533 155.804 105.619 159.83 92.0271L173.225 94.1691C173.433 94.3979 172.932 95.6357 173.136 95.8648C176.902 100.103 180.742 103.387 183.063 107.753C186.482 114.249 191.11 120.034 196.698 124.797L200.374 127.905Z" fill="#E6E6E6"/>
<path opacity="0.5" d="M206 130.672C199.342 136.169 185.385 145.345 177.624 142.337C169.524 139.199 159.909 139.445 149.381 140.847C149.881 137.627 150.414 134.427 150.98 131.248C153.262 118.44 194.854 122.939 200.463 127.816L206 130.672Z" fill="#E6E6E6"/>
<path d="M179.19 84.9171C176.685 84.1853 174.132 84.5486 171.545 85.6727L172.482 78.6345C172.387 77.8591 172.604 77.0778 173.086 76.4625C173.567 75.8471 174.273 75.4481 175.049 75.3531C175.825 75.2582 176.607 75.4752 177.222 75.9563C177.838 76.4374 178.238 77.1433 178.333 77.9186L179.19 84.9171Z" fill="#2F2E41"/>
<path d="M167.778 70.1609C170.54 70.1609 172.779 67.9232 172.779 65.1629C172.779 62.4026 170.54 60.1649 167.778 60.1649C165.016 60.1649 162.777 62.4026 162.777 65.1629C162.777 67.9232 165.016 70.1609 167.778 70.1609Z" fill="#FFB9B9"/>
<path d="M177.065 79.0859L166.081 76.4976C167.712 74.1549 167.378 71.4089 166.081 68.4651L171.439 67.3942C172.032 69.4259 172.752 71.2851 173.761 72.7491L177.065 79.0859Z" fill="#FFB9B9"/>
<path d="M173.225 94.883L159.651 92.9195L160.103 90.3789C159.888 83.7599 160.98 78.3422 163.045 73.8201L175.011 74.5341C176.547 75.7614 177.632 77.4625 178.097 79.3713C178.562 81.2802 178.381 83.2894 177.583 85.0847L173.404 93.2765L173.225 94.883Z" fill="#2F2E41"/>
<path d="M149.696 166.57C149.07 166.856 148.545 164.541 148.017 165.06C146.539 166.511 144.276 166.827 142.303 166.194L142.993 166.186C142.874 166.148 142.764 166.086 142.67 166.004C142.576 165.922 142.499 165.821 142.444 165.709C142.39 165.596 142.359 165.474 142.353 165.349C142.348 165.224 142.367 165.1 142.411 164.983C142.464 164.843 142.549 164.717 142.661 164.618C142.773 164.518 142.907 164.447 143.052 164.411L144.624 164.018L147.092 159.681L149.781 159.341L149.849 159.452C150.369 160.289 150.705 161.228 150.833 162.205C150.961 163.182 150.879 164.176 150.593 165.119C150.369 165.835 150.064 166.402 149.696 166.57Z" fill="#2F2E41"/>
<path d="M179.345 166.57C178.719 166.856 178.194 164.541 177.666 165.06C176.188 166.511 173.925 166.827 171.952 166.194L172.642 166.186C172.523 166.148 172.413 166.086 172.319 166.004C172.225 165.922 172.148 165.821 172.093 165.709C172.039 165.596 172.008 165.474 172.002 165.349C171.996 165.224 172.016 165.1 172.06 164.983C172.113 164.843 172.198 164.717 172.31 164.618C172.422 164.518 172.556 164.447 172.701 164.411L174.273 164.018L176.741 159.681L179.43 159.341L179.498 159.452C180.018 160.289 180.354 161.228 180.482 162.205C180.61 163.182 180.528 164.176 180.241 165.119C180.018 165.835 179.713 166.402 179.345 166.57Z" fill="#2F2E41"/>
<path d="M174.003 86.2258H173.875C171.459 84.1344 169.361 81.7898 171.056 78.8546C169.618 75.2083 168.015 71.4217 168.112 69.0792C168.214 67.3472 167.656 65.6409 166.551 64.303C165.023 62.5197 164.683 61.7233 161.893 62.3977C161.884 61.6817 162.019 60.9711 162.293 60.3091C162.566 59.6471 162.971 59.0476 163.483 58.5469C163.996 58.0463 164.605 57.6549 165.273 57.3967C165.941 57.1385 166.655 57.0187 167.371 57.0447L169.114 57.1081C170.448 57.1565 174.709 57.7013 175.624 58.5806C176.088 59.0414 176.439 59.6031 176.649 60.2219C176.86 60.8406 176.925 61.4997 176.839 62.1477C176.668 63.6016 177.127 64.8853 178.353 65.9618C180.701 68.3879 181.669 70.9053 180.338 73.5748C179.333 76.4009 179.381 78.7271 181.973 79.8453C182.815 83.0735 177.341 86.2258 174.003 86.2258Z" fill="#2F2E41"/>
<path d="M148.181 101.755C148.874 101.114 148.376 99.45 147.068 98.0374C145.761 96.6247 144.139 95.9986 143.447 96.639C142.754 97.2793 143.252 98.9437 144.559 100.356C145.867 101.769 147.488 102.395 148.181 101.755Z" fill="#3F3D56"/>
<path d="M152.756 90.7665C155.524 90.7665 157.769 88.5237 157.769 85.7571C157.769 82.9905 155.524 80.7477 152.756 80.7477C149.988 80.7477 147.744 82.9905 147.744 85.7571C147.744 88.5237 149.988 90.7665 152.756 90.7665Z" fill="#3D9E67"/>
<path d="M161.173 117.678C158.926 116.66 156.832 115.333 154.953 113.734C151.16 110.456 148.405 105.753 148.2 100.669C148.004 95.7902 150.072 91.2037 152.26 86.9641C152.536 86.4308 152.814 85.8989 153.095 85.3685C153.201 85.166 153.533 85.302 153.425 85.5058C151.155 89.8112 148.774 94.361 148.558 99.3256C148.331 104.559 150.889 109.547 154.696 113.028C156.66 114.795 158.884 116.248 161.291 117.339" fill="#3F3D56"/>
<path d="M150.843 85.6204L150.61 85.6741L151.365 88.9394L151.598 88.8858L150.843 85.6204Z" fill="#3F3D56"/>
<path d="M154.288 112.278C155.224 112.161 155.789 110.518 155.55 108.609C155.311 106.699 154.358 105.246 153.421 105.364C152.485 105.481 151.92 107.124 152.159 109.033C152.398 110.942 153.351 112.395 154.288 112.278Z" fill="#3F3D56"/>
<path d="M159.83 111.841L159.332 115.519C159.284 115.874 159.158 116.214 158.963 116.514C158.768 116.815 158.508 117.068 158.203 117.256C157.898 117.444 157.555 117.562 157.199 117.602C156.842 117.641 156.482 117.602 156.143 117.485C155.795 117.366 155.48 117.169 155.219 116.91C154.959 116.651 154.761 116.336 154.641 115.989C154.52 115.642 154.48 115.272 154.524 114.908C154.567 114.543 154.693 114.193 154.892 113.885L156.436 111.484L161.259 93.2766L161.794 80.7816L166.617 81.1386L165.902 95.4186L159.83 111.841Z" fill="#FFB9B9"/>
<path d="M167.242 83.4591C164.845 82.4285 162.267 82.479 159.562 83.2806L161.348 76.4084C161.348 75.6272 161.658 74.8781 162.211 74.3258C162.764 73.7734 163.513 73.4631 164.295 73.4631C165.077 73.4631 165.826 73.7734 166.379 74.3258C166.932 74.8781 167.242 75.6272 167.242 76.4084V83.4591Z" fill="#2F2E41"/>
</g>
<defs>
<clipPath id="clip0">
<rect width="206" height="167" fill="white"/>
</clipPath>
</defs>
</svg>
