<svg width="203" height="169" viewBox="0 0 203 169" fill="none" xmlns="http://www.w3.org/2000/svg">
<g clip-path="url(#clip0)">
<path d="M197.524 51.0533C196.928 50.5688 196.371 50.0381 195.858 49.4661C195.858 49.6025 195.858 49.7388 195.858 49.8752C191.789 45.7307 191.932 40.7098 193.598 36.1294L194.149 35.926C196.765 29.0229 202.76 23.2331 202.76 23.2331L201.864 23.6087C202.142 23.3225 202.301 23.1616 202.301 23.1616C165.124 38.9908 139.257 39.914 136.372 39.9677C134.594 39.297 119.943 33.9722 105.769 31.9871C101.31 31.3411 96.8819 31.0169 92.9044 31.2673L88.4387 12.1296L88.3536 12.181C88.1453 10.5402 87.3727 6.96796 84.5463 4.75263C80.7726 1.81078 83.5833 15.3464 83.5833 15.3464L83.8924 15.2011L85.4735 32.2442L84.7031 32.888C80.2357 34.2172 75.6255 35.0104 70.97 35.2509C71.8285 34.4583 72.5357 33.5169 73.0573 32.4722C73.3571 32.534 73.6675 32.5208 73.961 32.4338C74.2544 32.3468 74.5218 32.1888 74.7392 31.9737C74.8859 31.8196 75.0103 31.6458 75.1087 31.4573C75.3144 31.1256 75.4798 30.7707 75.6014 30.3999C76.5286 27.9141 77.5409 25.4216 77.841 22.7882C78.1411 20.1549 77.6484 17.298 75.8724 15.3241C74.0965 13.3502 70.858 12.5991 68.6834 14.1236C68.1213 14.5171 67.6442 15.0402 67.0261 15.3397C65.1426 16.2495 63.0531 14.7742 61.2995 13.6341C59.2615 12.3085 56.5695 11.3584 54.4576 12.5611C53.7984 12.9436 53.2563 13.4986 52.8899 14.1661C52.3107 15.0824 52.0385 16.1589 52.1127 17.2399C52.2337 18.9768 53.1721 20.593 54.4285 21.7912C54.8505 22.2332 55.3695 22.5715 55.9447 22.7793C56.091 22.8242 56.2408 22.8571 56.3926 22.8777C55.6921 23.9356 55.2077 25.1211 54.9671 26.3663C54.7265 27.6115 54.7345 28.8918 54.9906 30.1339L54.209 34.8552C53.5147 35.1793 53.1273 35.888 52.91 36.581C49.6425 36.6771 46.2988 38.9125 46.2988 38.9125L33.457 51.7306C30.1268 53.9862 32.3865 58.1396 32.3865 58.1396L39.8779 80.5724L40.2922 80.2639C41.8286 83.0582 46.3391 90.7705 47.2058 86.9255C48.2651 82.2669 44.9662 78.0374 44.9662 78.0374H44.9259L44.0726 76.942L40.9372 60.2656L44.9035 56.3334L50.2337 55.5577L50.4711 90.0887C40.72 115.727 41.9092 127.477 41.9092 127.477L50.4711 159.524L51.564 159.343L51.8283 160.398L51.9246 160.365L52.3994 162.73H51.5439L50.4734 165.935C50.4734 165.935 45.0043 165.817 45.123 167.004C45.2417 168.191 48.2159 170.209 55.826 168.072L57.967 165.935C57.967 165.935 59.0375 164.867 56.8965 162.73H56.7442L56.1507 158.581L56.8965 158.455L50.4711 126.401C55.8215 122.009 65.4539 105.037 65.4539 105.037C65.4539 105.037 75.0841 122.011 80.4367 126.401L74.0158 158.447L74.7616 158.572L74.1771 162.721H74.0248C71.8837 164.858 72.9543 165.926 72.9543 165.926L75.0953 168.063C82.7099 170.201 85.6796 168.182 85.7983 166.995C85.917 165.808 80.4479 165.926 80.4479 165.926L79.3774 162.721H78.5219L79.1377 159.645L79.2475 159.316L80.4479 159.515L89.0098 127.468C89.0098 127.468 88.8508 108.951 80.5375 85.8056L97.6165 109.711L111.13 130.98C111.845 129.26 112.725 127.613 113.757 126.062L123.535 116.943C134.901 110.194 150.074 109.79 159.445 110.346L168.085 111.279L172.147 89.9166C174.515 86.8741 178.029 84.2497 183.137 82.287C193.735 78.2185 202.621 69.5807 202.55 61.1821C202.704 61.3542 202.854 61.5264 202.998 61.7007C203.107 57.9854 201.493 54.2969 197.524 51.0533ZM80.2239 82.7408L80.2127 82.3473L80.7054 83.1208L80.2239 82.7408Z" fill="url(#paint0_linear)"/>
<path d="M46.7803 78.2408H46.74L44.8386 75.793L41.7614 78.8645L42.1018 79.3742L41.7144 79.468C41.7144 79.468 47.9247 91.4411 48.9594 86.8964C49.9941 82.3518 46.7803 78.2408 46.7803 78.2408Z" fill="#FDB797"/>
<path d="M59.7453 35.4609C59.7453 35.4609 71.0708 38.8521 86.9293 33.7642C102.788 28.6763 135.633 41.1122 135.633 41.1122C135.633 41.1122 161.684 41.1122 200.196 24.7196C200.196 24.7196 182.64 41.6777 195.099 51.8535C207.558 62.0293 196.232 76.7251 181.507 82.3786C166.782 88.032 165.651 99.3367 166.782 110.078C167.912 120.819 166.782 110.644 166.782 110.644C166.782 110.644 122.608 102.73 111.28 129.868L55.2146 41.68C55.2146 41.68 51.8172 34.8976 59.7453 35.4609Z" fill="#3D9E67"/>
<path opacity="0.1" d="M31.681 18.818L172.696 120.003L181.191 95.1318L31.681 18.818Z" fill="black"/>
<path opacity="0.1" d="M40.1758 50.4742L118.328 129.614L129.656 121.135L40.1758 50.4742Z" fill="black"/>
<g opacity="0.1">
<path opacity="0.1" d="M63.0173 43.4393C63.0173 43.4393 74.3428 46.8304 90.2013 41.7426C106.06 36.6547 138.901 49.0927 138.901 49.0927C138.901 49.0927 159.975 49.0927 192.234 37.1643C194.785 30.4312 200.631 24.7844 200.631 24.7844C162.11 41.177 136.068 41.177 136.068 41.177C136.068 41.177 103.22 28.7412 87.3638 33.8291C71.5075 38.9169 60.1797 35.5258 60.1797 35.5258C52.2516 34.9602 55.6491 41.7448 55.6491 41.7448L57.9805 45.4132C58.4664 44.177 59.8214 43.2112 63.0173 43.4393Z" fill="black"/>
<path opacity="0.1" d="M195.54 51.9183C194.958 51.4454 194.414 50.9274 193.914 50.3691C193.784 53.7067 194.938 57.0263 198.371 59.8318C199.286 60.5707 200.125 61.3989 200.875 62.3042C200.984 58.6783 199.41 55.0792 195.54 51.9183Z" fill="black"/>
</g>
<path d="M80.3069 156.654L79.2632 161.864H75.0864L76.1323 154.57L80.3069 156.654Z" fill="#FDB797"/>
<path opacity="0.1" d="M80.2218 157.373L79.9284 158.254L75.8098 157.081L76.1032 156.493L80.2218 157.373Z" fill="black"/>
<path d="M53.1699 156.654L54.2136 161.864H58.3881L57.3445 154.57L53.1699 156.654Z" fill="#FDB797"/>
<path opacity="0.1" d="M53.1542 157.373L53.4476 158.547L57.5684 157.081V156.493L53.1542 157.373Z" fill="black"/>
<path d="M89.142 14.8636C89.142 14.8636 89.0255 9.64155 85.3504 6.76676C81.6752 3.89198 84.4254 17.0923 84.4254 17.0923L89.142 14.8636Z" fill="#FDB797"/>
<path d="M58.3881 160.823H53.1699L52.1262 163.952C52.1262 163.952 46.7915 163.836 46.908 164.994C47.0245 166.152 49.9225 168.124 57.3444 166.036L59.4317 163.952C59.4317 163.952 60.4754 162.906 58.3881 160.823Z" fill="#333333"/>
<path d="M75.0864 160.823H80.3046L81.3483 163.952C81.3483 163.952 86.683 163.836 86.5665 164.994C86.45 166.152 83.552 168.124 76.1301 166.036L74.0428 163.952C74.0428 163.952 72.9991 162.906 75.0864 160.823Z" fill="#333333"/>
<path d="M81.3438 89.9791H52.1262C42.6169 114.983 43.7771 126.444 43.7771 126.444L52.1262 157.698L58.397 156.656L52.1262 125.409C57.3444 121.126 66.7395 104.572 66.7395 104.572C66.7395 104.572 76.13 121.117 81.3438 125.409L75.0729 156.663L81.3438 157.704L89.6929 126.45C89.6929 126.45 90.8598 114.983 81.3438 89.9791Z" fill="#333333"/>
<path opacity="0.1" d="M52.1262 90.3837C52.1262 90.3837 68.6991 96.6429 81.3505 90.3837H52.1262Z" fill="black"/>
<path d="M51.2036 52.5756L42.8544 60.9093L45.9898 77.5791L41.8153 80.7087L34.5098 58.8304C34.5098 58.8304 32.306 54.7797 35.5534 52.5711L48.0794 40.0682C48.0794 40.0682 53.4544 36.4736 57.1497 38.3156C60.845 40.1576 51.1319 52.4437 51.1319 52.4437" fill="#3AD29F"/>
<path d="M51.0803 52.4727L52.124 89.9791C52.124 89.9791 68.6969 96.2384 81.3482 89.9791L80.3046 54.6724L80.0381 53.5055L80.2307 52.931L92.7723 42.5496C96.2101 40.6606 94.3938 36.4222 94.3938 36.4222L89.1532 13.9626L84.7031 16.6854L86.2708 33.572L77.3394 40.9669L77.1154 40.9557V41.0116L54.2202 39.9721" fill="#3AD29F"/>
<path d="M67.4248 34.8193H66.1661C64.2081 34.8193 62.6208 36.4037 62.6208 38.3581V40.6561C62.6208 42.6105 64.2081 44.1948 66.1661 44.1948H67.4248C69.3827 44.1948 70.97 42.6105 70.97 40.6561V38.3581C70.97 36.4037 69.3827 34.8193 67.4248 34.8193Z" fill="#FDB797"/>
<path opacity="0.1" d="M62.8875 38.8231C64.2128 39.285 65.6251 39.4445 67.0204 39.2898C68.4157 39.135 69.7585 38.67 70.9499 37.9289C70.6559 37.1254 70.1221 36.4312 69.4205 35.94C68.7188 35.4487 67.8832 35.184 67.0262 35.1815C66.0114 35.185 65.0324 35.5561 64.2712 36.2259C63.5099 36.8957 63.0182 37.8186 62.8875 38.8231Z" fill="black"/>
<path d="M65.7518 38.9862C70.9393 38.9862 75.1446 34.7886 75.1446 29.6107C75.1446 24.4328 70.9393 20.2352 65.7518 20.2352C60.5643 20.2352 56.359 24.4328 56.359 29.6107C56.359 34.7886 60.5643 38.9862 65.7518 38.9862Z" fill="#FDB797"/>
<path opacity="0.1" d="M59.228 24.4402C58.6445 24.5136 58.0526 24.4803 57.4811 24.3418C56.9202 24.1384 56.4142 23.8078 56.003 23.3761C54.7757 22.2002 53.862 20.631 53.7433 18.9365C53.6246 17.242 54.4151 15.4469 55.8865 14.6064C57.9469 13.435 60.574 14.3605 62.5605 15.6526C64.2693 16.7703 66.3095 18.2033 68.146 17.3158C68.7484 17.0252 69.2143 16.5133 69.763 16.131C71.8839 14.6444 75.0417 15.3777 76.7729 17.3024C78.5041 19.2271 78.99 22.0125 78.6922 24.5832C78.3943 27.154 77.4089 29.5839 76.5041 32.0072C76.3633 32.4853 76.1246 32.9291 75.8031 33.3104C74.7013 34.4393 72.6386 33.563 71.913 32.1636C70.6521 29.7292 71.913 25.5087 68.9343 24.0892C66.5626 22.9625 61.7744 24.2747 59.228 24.4402Z" fill="black"/>
<path d="M59.369 24.2077C58.7855 24.2812 58.1936 24.2479 57.6221 24.1094C57.0612 23.906 56.5552 23.5754 56.144 23.1437C54.9167 21.9678 54.0029 20.3985 53.8842 18.7041C53.7655 17.0096 54.5561 15.2145 56.0275 14.374C58.0879 13.2026 60.715 14.1281 62.7015 15.4202C64.4103 16.5379 66.4505 17.9708 68.287 17.0834C68.8894 16.7928 69.3553 16.2808 69.904 15.8986C72.0249 14.412 75.1827 15.1452 76.9139 17.07C78.6451 18.9947 79.131 21.78 78.8332 24.3508C78.5353 26.9216 77.5365 29.3515 76.6406 31.7747C76.4998 32.2529 76.2611 32.6967 75.9396 33.078C74.8378 34.2069 72.7751 33.3306 72.0495 31.9312C70.7886 29.4968 72.0495 25.2763 69.0708 23.8568C66.7103 22.7301 61.9131 24.0446 59.369 24.2077Z" fill="#333333"/>
<path d="M70.97 31.6942C71.5464 31.6942 72.0137 30.7614 72.0137 29.6108C72.0137 28.4601 71.5464 27.5273 70.97 27.5273C70.3936 27.5273 69.9264 28.4601 69.9264 29.6108C69.9264 30.7614 70.3936 31.6942 70.97 31.6942Z" fill="#FDB797"/>
<path opacity="0.1" d="M51.0938 52.4683L53.7432 53.7067L51.0938 56.9392V52.4683Z" fill="black"/>
<path opacity="0.1" d="M80.2217 52.9243L78.4569 54.8826L79.6327 56.6441L80.3203 54.6858L80.2217 52.9243Z" fill="black"/>
<path d="M66.9186 43.3678V45.0645C66.9186 45.0645 54.5226 42.8044 54.2068 39.411L62.388 39.9766L66.9186 43.3678Z" fill="#3D9E67"/>
<path d="M66.9187 43.3678V45.0645C66.9187 45.0645 79.3148 42.8044 79.6306 39.411L71.4494 39.9766L66.9187 43.3678Z" fill="#3D9E67"/>
<path opacity="0.1" d="M142.681 61.7789L183.457 71.3891L168.732 77.6082L142.681 61.7789Z" fill="black"/>
<path d="M54.2449 39.4937C54.2449 39.4937 54.2449 35.9415 56.6188 35.9415C58.9928 35.9415 61.3645 43.048 61.3645 43.048L54.2449 39.4937Z" fill="#3D9E67"/>
<path opacity="0.5" d="M2.58894 67.1977C3.44734 67.1977 4.1432 66.5031 4.1432 65.6463C4.1432 64.7894 3.44734 64.0948 2.58894 64.0948C1.73054 64.0948 1.03467 64.7894 1.03467 65.6463C1.03467 66.5031 1.73054 67.1977 2.58894 67.1977Z" fill="#F55F44"/>
<path opacity="0.5" d="M22.0084 103.64C22.8668 103.64 23.5626 102.945 23.5626 102.089C23.5626 101.232 22.8668 100.537 22.0084 100.537C21.15 100.537 20.4541 101.232 20.4541 102.089C20.4541 102.945 21.15 103.64 22.0084 103.64Z" fill="#F55F44"/>
<path opacity="0.5" d="M187.464 5.94399C188.322 5.94399 189.018 5.2494 189.018 4.39259C189.018 3.53577 188.322 2.84119 187.464 2.84119C186.606 2.84119 185.91 3.53577 185.91 4.39259C185.91 5.2494 186.606 5.94399 187.464 5.94399Z" fill="#F55F44"/>
<path opacity="0.5" d="M112.606 5.41648C112.392 5.32348 112.22 5.15531 112.122 4.94389C112.024 4.73248 112.008 4.49255 112.075 4.26969C112.086 4.2356 112.093 4.20032 112.095 4.16462C112.102 4.06236 112.075 3.96077 112.019 3.87495C111.963 3.78913 111.881 3.72365 111.784 3.68825C111.688 3.65285 111.583 3.64942 111.484 3.67845C111.386 3.70749 111.299 3.76745 111.238 3.84943C111.216 3.87844 111.198 3.90996 111.184 3.94331C111.09 4.15593 110.922 4.32699 110.711 4.42419C110.5 4.5214 110.26 4.538 110.037 4.47088C110.003 4.45999 109.968 4.45324 109.932 4.45076C109.83 4.44441 109.728 4.47121 109.642 4.52719C109.556 4.58317 109.49 4.66534 109.455 4.7615C109.419 4.85765 109.416 4.96266 109.445 5.06093C109.474 5.15919 109.534 5.24547 109.616 5.30694C109.645 5.32856 109.677 5.34657 109.71 5.36059C109.923 5.45473 110.093 5.62304 110.189 5.83384C110.286 6.04464 110.302 6.28339 110.234 6.50514C110.223 6.53923 110.217 6.57451 110.214 6.61021C110.208 6.71247 110.235 6.81406 110.291 6.89988C110.347 6.98571 110.429 7.05118 110.526 7.08658C110.622 7.12198 110.727 7.12541 110.826 7.09638C110.924 7.06734 111.01 7.00738 111.072 6.92541C111.094 6.8964 111.112 6.86487 111.126 6.83152C111.219 6.618 111.387 6.44608 111.599 6.34841C111.811 6.25074 112.051 6.23412 112.275 6.30172C112.309 6.3126 112.344 6.31936 112.38 6.32183C112.482 6.328 112.583 6.30126 112.669 6.24555C112.755 6.18985 112.82 6.10814 112.856 6.01246C112.891 5.91678 112.895 5.81221 112.867 5.71416C112.839 5.61611 112.779 5.52978 112.698 5.46789C112.669 5.44721 112.639 5.42995 112.606 5.41648Z" fill="#4D8AF0"/>
<path opacity="0.5" d="M188.989 99.7502C188.775 99.6572 188.603 99.489 188.505 99.2776C188.407 99.0662 188.391 98.8263 188.458 98.6034C188.469 98.5693 188.476 98.5341 188.479 98.4984C188.485 98.3961 188.458 98.2945 188.402 98.2087C188.346 98.1229 188.264 98.0574 188.167 98.022C188.071 97.9866 187.966 97.9832 187.867 98.0122C187.769 98.0412 187.682 98.1012 187.621 98.1832C187.599 98.2122 187.581 98.2437 187.567 98.2771C187.474 98.4906 187.305 98.6625 187.094 98.7602C186.882 98.8578 186.641 98.8744 186.418 98.8069C186.384 98.796 186.349 98.7892 186.313 98.7867C186.21 98.7804 186.109 98.8072 186.023 98.8632C185.937 98.9191 185.871 99.0013 185.836 99.0975C185.8 99.1936 185.797 99.2986 185.826 99.3969C185.855 99.4952 185.915 99.5814 185.997 99.6429C186.026 99.6645 186.058 99.6825 186.091 99.6966C186.305 99.7895 186.477 99.9577 186.575 100.169C186.673 100.381 186.69 100.62 186.622 100.843C186.611 100.877 186.604 100.913 186.602 100.948C186.595 101.051 186.622 101.152 186.678 101.238C186.734 101.324 186.817 101.389 186.913 101.425C187.009 101.46 187.115 101.464 187.213 101.435C187.312 101.406 187.398 101.346 187.46 101.264C187.481 101.235 187.499 101.203 187.513 101.17C187.606 100.956 187.775 100.784 187.987 100.687C188.199 100.589 188.439 100.572 188.662 100.64C188.696 100.651 188.732 100.658 188.767 100.66C188.87 100.666 188.972 100.64 189.058 100.584C189.144 100.528 189.209 100.445 189.245 100.349C189.28 100.253 189.284 100.148 189.255 100.05C189.225 99.9516 189.165 99.8653 189.083 99.8039C189.054 99.7822 189.023 99.7642 188.989 99.7502Z" fill="#4D8AF0"/>
<path opacity="0.5" d="M131.535 145.508C132.393 145.508 133.089 144.813 133.089 143.956C133.089 143.099 132.393 142.405 131.535 142.405C130.677 142.405 129.981 143.099 129.981 143.956C129.981 144.813 130.677 145.508 131.535 145.508Z" fill="#47E6B1"/>
<path opacity="0.5" d="M126.874 22.2271C127.733 22.2271 128.429 21.5325 128.429 20.6757C128.429 19.8189 127.733 19.1243 126.874 19.1243C126.016 19.1243 125.32 19.8189 125.32 20.6757C125.32 21.5325 126.016 22.2271 126.874 22.2271Z" fill="#47E6B1"/>
<g opacity="0.5">
<path opacity="0.5" d="M2.5889 0H1.81177V4.39266H2.5889V0Z" fill="#47E6B1"/>
<path opacity="0.5" d="M4.40076 2.58417V1.80847L-1.81198e-05 1.80847V2.58417H4.40076Z" fill="#47E6B1"/>
</g>
<g opacity="0.5">
<path opacity="0.5" d="M16.8304 42.1271H16.0532V46.5197H16.8304V42.1271Z" fill="#47E6B1"/>
<path opacity="0.5" d="M18.6422 44.7112V43.9355H14.2414V44.7112H18.6422Z" fill="#47E6B1"/>
</g>
<g opacity="0.5">
<path opacity="0.5" d="M159.241 23.2599H158.464V27.6525H159.241V23.2599Z" fill="#47E6B1"/>
<path opacity="0.5" d="M161.055 25.8441V25.0684H156.654V25.8441H161.055Z" fill="#47E6B1"/>
</g>
</g>
<defs>
<linearGradient id="paint0_linear" x1="117.327" y1="169" x2="117.327" y2="4.33684" gradientUnits="userSpaceOnUse">
<stop stop-color="#808080" stop-opacity="0.25"/>
<stop offset="0.54" stop-color="#808080" stop-opacity="0.12"/>
<stop offset="1" stop-color="#808080" stop-opacity="0.1"/>
</linearGradient>
<clipPath id="clip0">
<rect width="203" height="169" fill="white"/>
</clipPath>
</defs>
</svg>
